<svg width="114" height="106" viewBox="0 0 114 106" fill="none" xmlns="http://www.w3.org/2000/svg">
<circle cx="57.3066" cy="52.075" r="37.0574" stroke="#C8AA84" stroke-width="0.885134"/>
<line x1="57.2219" y1="15.0168" x2="57.2219" y2="21.2002" stroke="#C8AA84" stroke-width="0.885134"/>
<line x1="94.6328" y1="52.1179" x2="88.4707" y2="52.1179" stroke="#C8AA84" stroke-width="0.885134"/>
<line x1="57.2219" y1="83.0337" x2="57.2219" y2="89.217" stroke="#C8AA84" stroke-width="0.885134"/>
<line x1="26.8496" y1="52.1179" x2="20.6875" y2="52.1179" stroke="#C8AA84" stroke-width="0.885134"/>
<path d="M53.0864 52.9947L43.8947 27.8047L60.7313 48.6418L69.9231 73.8318L53.0864 52.9947Z" fill="#C8AA84"/>
<path d="M66.708 68.1347L60.0469 50.0912L54.6875 53.1428L66.708 68.1347Z" fill="white"/>
<path d="M57.0824 9.12392C56.1501 9.12392 55.38 8.81412 54.7722 8.19453C54.1644 7.57493 53.8605 6.81077 53.8605 5.90203C53.8605 4.98739 54.1644 4.22323 54.7722 3.60953C55.38 2.98994 56.1501 2.68014 57.0824 2.68014C57.643 2.68014 58.1593 2.81291 58.6314 3.07845C59.1094 3.33809 59.4811 3.69215 59.7467 4.14061L58.6934 4.75136C58.54 4.47401 58.3216 4.25863 58.0384 4.10521C57.7551 3.94588 57.4365 3.86622 57.0824 3.86622C56.4805 3.86622 55.9937 4.05505 55.622 4.43271C55.2561 4.81036 55.0732 5.30014 55.0732 5.90203C55.0732 6.49802 55.2561 6.98484 55.622 7.3625C55.9937 7.74016 56.4805 7.92899 57.0824 7.92899C57.4365 7.92899 57.7551 7.85228 58.0384 7.69885C58.3275 7.53953 58.5459 7.32415 58.6934 7.0527L59.7467 7.66345C59.4811 8.11192 59.1123 8.46892 58.6403 8.73446C58.1682 8.9941 57.6489 9.12392 57.0824 9.12392Z" fill="#C8AA84"/>
<path d="M12.597 50.8095C13.016 50.9335 13.3553 51.1518 13.6149 51.4645C13.8805 51.7714 14.0132 52.1431 14.0132 52.5798C14.0132 53.2171 13.7979 53.7157 13.3671 54.0757C12.9422 54.4356 12.42 54.6156 11.8004 54.6156C11.3165 54.6156 10.8828 54.5065 10.4993 54.2881C10.1216 54.0639 9.84721 53.7364 9.67608 53.3056L10.7205 52.7037C10.874 53.1817 11.2339 53.4207 11.8004 53.4207C12.1132 53.4207 12.3551 53.3469 12.5262 53.1994C12.7032 53.046 12.7918 52.8394 12.7918 52.5798C12.7918 52.3261 12.7032 52.1225 12.5262 51.9691C12.3551 51.8156 12.1132 51.7389 11.8004 51.7389H11.5349L11.0657 51.0308L12.2872 49.4376H9.86196V48.2958H13.7566V49.3048L12.597 50.8095Z" fill="#C8AA84"/>
<path d="M103.756 51.2787C104.299 51.5914 104.571 52.0635 104.571 52.6949C104.571 53.2201 104.385 53.6508 104.013 53.9872C103.641 54.3235 103.184 54.4917 102.641 54.4917H100.012V48.2958H102.455C102.986 48.2958 103.432 48.461 103.792 48.7914C104.158 49.116 104.341 49.532 104.341 50.0395C104.341 50.5529 104.146 50.9659 103.756 51.2787ZM102.455 49.4376H101.234V50.8007H102.455C102.644 50.8007 102.8 50.7358 102.924 50.606C103.054 50.4761 103.119 50.3139 103.119 50.1191C103.119 49.9244 103.057 49.7621 102.933 49.6323C102.809 49.5025 102.65 49.4376 102.455 49.4376ZM102.641 53.3499C102.848 53.3499 103.019 53.282 103.155 53.1463C103.29 53.0047 103.358 52.8276 103.358 52.6152C103.358 52.4087 103.29 52.2376 103.155 52.1018C103.019 51.9602 102.848 51.8894 102.641 51.8894H101.234V53.3499H102.641Z" fill="#C8AA84"/>
<path d="M57.946 94.1052C58.8429 94.1052 59.6041 94.4179 60.2296 95.0434C60.8551 95.663 61.1679 96.4242 61.1679 97.3271C61.1679 98.224 60.8551 98.9852 60.2296 99.6107C59.6041 100.236 58.8429 100.549 57.946 100.549C57.1434 100.549 56.4471 100.292 55.857 99.7789C55.2729 99.2655 54.9218 98.6135 54.8037 97.8228H53.9098V100.425H52.6883V94.2291H53.9098V96.6544H54.8303C54.9837 95.9109 55.3466 95.3001 55.919 94.8221C56.4973 94.3442 57.1729 94.1052 57.946 94.1052ZM56.5209 98.7876C56.9045 99.1652 57.3795 99.354 57.946 99.354C58.5125 99.354 58.9875 99.1652 59.371 98.7876C59.7546 98.404 59.9464 97.9172 59.9464 97.3271C59.9464 96.737 59.7546 96.2502 59.371 95.8666C58.9875 95.483 58.5125 95.2913 57.946 95.2913C57.3736 95.2913 56.8956 95.4801 56.512 95.8578C56.1344 96.2354 55.9456 96.7252 55.9456 97.3271C55.9456 97.9172 56.1373 98.404 56.5209 98.7876Z" fill="#C8AA84"/>
</svg>
