<svg width="1350" height="490" viewBox="0 0 1350 490" fill="none" xmlns="http://www.w3.org/2000/svg">
<path d="M1 1.00024H1185.59H1211.5L1232 1.00023L1242.96 1.00024H1348V487H1V1.00024Z" fill="#FFF8F3"/>
<rect x="593" y="267.001" width="421" height="222" fill="#FEBEBF"/>
<rect x="1173.08" y="244.237" width="176.917" height="244.266" fill="#FEBEBF"/>
<rect x="255" y="1.00073" width="331" height="209" fill="#BBE2CA"/>
<rect x="0.00537109" y="169.852" width="111.578" height="76.3958" fill="#BBE2CA"/>
<rect x="178" y="267" width="161" height="222" fill="#BBE2CA"/>
<rect x="676" y="1.00073" width="167" height="210" fill="#BBE2CA"/>
<rect x="1016" y="268.001" width="157" height="221" fill="#BBE2CA"/>
<path d="M1190.4 1.98193H1201.5H1233H1242H1350V241.221H1174.09V166.532H1190.4V1.98193Z" fill="#BBE2CA"/>
<rect x="586" y="1.00073" width="90" height="209" fill="#FEBEBF"/>
<rect x="341" y="268.001" width="252" height="221" fill="#FEBEBF"/>
<rect x="1" y="246.001" width="179" height="243" fill="#FEBEBF"/>
<rect x="843" y="1.00073" width="254" height="210" fill="#FEBEBF"/>
<rect x="207.958" y="42.5381" width="5.09675" height="84.3037" stroke="black"/>
<rect x="208.178" y="42.5383" width="9.5169" height="39.2385" transform="rotate(90 208.178 42.5383)" stroke="black"/>
<rect x="208.178" y="51.8867" width="9.5169" height="39.2385" transform="rotate(90 208.178 51.8867)" stroke="black"/>
<rect x="208.178" y="61.2351" width="9.5169" height="39.2385" transform="rotate(90 208.178 61.2351)" stroke="black"/>
<rect x="208.178" y="70.5835" width="9.5169" height="39.2385" transform="rotate(90 208.178 70.5835)" stroke="black"/>
<rect x="208.178" y="79.9316" width="9.5169" height="39.2385" transform="rotate(90 208.178 79.9316)" stroke="black"/>
<rect x="208.178" y="89.28" width="9.5169" height="39.2385" transform="rotate(90 208.178 89.28)" stroke="black"/>
<rect x="208.178" y="98.6284" width="9.5169" height="39.2385" transform="rotate(90 208.178 98.6284)" stroke="black"/>
<rect x="208.178" y="107.977" width="9.5169" height="39.2385" transform="rotate(90 208.178 107.977)" stroke="black"/>
<rect x="208.178" y="117.325" width="9.5169" height="39.2385" transform="rotate(90 208.178 117.325)" stroke="black"/>
<rect x="252.075" y="42.5381" width="9.5169" height="39.2385" transform="rotate(90 252.075 42.5381)" stroke="black"/>
<rect x="252.075" y="51.8865" width="9.5169" height="39.2385" transform="rotate(90 252.075 51.8865)" stroke="black"/>
<rect x="252.075" y="61.2349" width="9.5169" height="39.2385" transform="rotate(90 252.075 61.2349)" stroke="black"/>
<rect x="252.075" y="70.5833" width="9.5169" height="39.2385" transform="rotate(90 252.075 70.5833)" stroke="black"/>
<rect x="252.075" y="79.9316" width="9.5169" height="39.2385" transform="rotate(90 252.075 79.9316)" stroke="black"/>
<rect x="252.075" y="89.2798" width="9.5169" height="39.2385" transform="rotate(90 252.075 89.2798)" stroke="black"/>
<rect x="252.075" y="98.6282" width="9.5169" height="39.2385" transform="rotate(90 252.075 98.6282)" stroke="black"/>
<rect x="252.075" y="107.977" width="9.5169" height="39.2385" transform="rotate(90 252.075 107.977)" stroke="black"/>
<rect x="252.075" y="117.325" width="9.5169" height="39.2385" transform="rotate(90 252.075 117.325)" stroke="black"/>
<path d="M2.50586 66.5774V3.47607H22.3711" stroke="#181818" stroke-width="5"/>
<path d="M148.573 3.47607H189.472" stroke="#181818" stroke-width="5"/>
<path d="M71.4492 3.47607L95.9886 3.47608" stroke="#181818" stroke-width="5"/>
<path d="M166.101 6.00073L166.101 163.567L191.061 163.567M233.434 163.567L254.911 163.567L254.911 3.47607" stroke="#181818" stroke-width="5"/>
<path d="M347.81 4.64453V213.23" stroke="#181818" stroke-width="5"/>
<path d="M586 4.64453V213.23" stroke="#181818" stroke-width="5"/>
<path d="M675.586 4.64453V213.23" stroke="#181818" stroke-width="5"/>
<path d="M1013 269.904L1013 484.916" stroke="#181818" stroke-width="5"/>
<path d="M1007.45 4.64453V213.23" stroke="#181818" stroke-width="5"/>
<path d="M1.9209 168.241H111.764V210.308M111.764 244.78V210.308M1.9209 244.78H180.124M180.124 244.78V489M180.124 244.78V210.308M180.124 162.398V210.308M180.124 210.308H111.764" stroke="#181818" stroke-width="5"/>
<path d="M180.124 268.736H1173.97" stroke="#181818" stroke-width="5"/>
<path d="M1174.64 164.001V243.462M1174.64 488.272V243.462M1174.64 243.462H1346.42M341 270.501V488.272" stroke="#181818" stroke-width="5"/>
<path d="M1097.43 4.99738L1097.43 164.735L1123.7 164.735M1168.31 164.735L1190.91 164.735L1190.91 3.47607" stroke="#181818" stroke-width="5"/>
<path d="M254.911 162.398V212.573H1097.43V158.892" stroke="#181818" stroke-width="5"/>
<path d="M507 271.073V488.422" stroke="#181818" stroke-width="5"/>
<path d="M675 271.001V488.35" stroke="#181818" stroke-width="5"/>
<path d="M840.352 271.073V488.422" stroke="#181818" stroke-width="5"/>
<path d="M239.719 3.47607H270.101" stroke="#181818" stroke-width="5"/>
<path d="M323.854 3.47607H358.911" stroke="#181818" stroke-width="5"/>
<path d="M412.664 3.47607H437.203" stroke="#181818" stroke-width="5"/>
<path d="M494.463 3.47607H516.665" stroke="#181818" stroke-width="5"/>
<path d="M572.755 3.47607H598.463" stroke="#181818" stroke-width="5"/>
<path d="M654.552 3.47607H684.934" stroke="#181818" stroke-width="5"/>
<path d="M739.856 3.47607H765.564" stroke="#181818" stroke-width="5"/>
<path d="M822.823 3.47607H860.217" stroke="#181818" stroke-width="5"/>
<path d="M918.644 3.47607H945.52" stroke="#181818" stroke-width="5"/>
<path d="M1005.12 3.47607H1030.82" stroke="#181818" stroke-width="5"/>
<path d="M1083.41 3.47607H1123.14" stroke="#181818" stroke-width="5"/>
<path d="M1171.05 3.47607H1240" stroke="#181818" stroke-width="5"/>
<path d="M1347.5 115.656L1347.5 188.106" stroke="#181818" stroke-width="5"/>
<path d="M1347.5 229.005L1347.5 258.219" stroke="#181818" stroke-width="5"/>
<path d="M1347.5 301.455L1347.5 386.759" stroke="#181818" stroke-width="5"/>
<path d="M1347.5 447.523L1347.5 486.995L1331.72 486.995" stroke="#181818" stroke-width="5"/>
<path d="M1282.15 486.995L1256.01 486.995" stroke="#181818" stroke-width="5"/>
<path d="M1200.73 486.995L1171.58 486.995" stroke="#181818" stroke-width="5"/>
<path d="M1124.33 486.995L1085.63 486.995" stroke="#181818" stroke-width="5"/>
<path d="M1031.85 486.995L1004.71 486.995" stroke="#181818" stroke-width="5"/>
<path d="M946.911 486.995L920.776 486.995" stroke="#181818" stroke-width="5"/>
<path d="M863.769 486.995L823.773 486.995" stroke="#181818" stroke-width="5"/>
<path d="M767.984 486.995L743.859 486.995" stroke="#181818" stroke-width="5"/>
<path d="M686.562 486.995L656.909 486.995" stroke="#181818" stroke-width="5"/>
<path d="M600.617 486.995L574.984 486.995" stroke="#181818" stroke-width="5"/>
<path d="M519.195 486.995L496.578 486.995" stroke="#181818" stroke-width="5"/>
<path d="M438.527 486.995L415.156 486.995" stroke="#181818" stroke-width="5"/>
<path d="M360.372 486.995L326.698 486.995" stroke="#181818" stroke-width="5"/>
<path d="M271.412 486.995L240.024 486.995" stroke="#181818" stroke-width="5"/>
<path d="M187.477 486.995L165.865 486.995" stroke="#181818" stroke-width="5"/>
<path d="M111.081 486.995L89.4688 486.995" stroke="#181818" stroke-width="5"/>
<path d="M36.6957 486.995L2.50586 486.995L2.50586 453.365" stroke="#181818" stroke-width="5"/>
<path d="M2.50586 390.264V309.635" stroke="#181818" stroke-width="5"/>
<path d="M2.50586 331.69H18.8655" stroke="#181818" stroke-width="5"/>
<path d="M174.281 330.668L185.967 330.668" stroke="#181818" stroke-width="5"/>
<path d="M840.352 262.893L840.352 273.41" stroke="#181818" stroke-width="5"/>
<path d="M1166.37 325.994L1176.89 325.994" stroke="#181818" stroke-width="5"/>
<path d="M1337.94 325.659L1345.98 325.659" stroke="#181818" stroke-width="5"/>
<path d="M1337.94 160.061L1348.45 160.061" stroke="#181818" stroke-width="5"/>
<path d="M1000.44 160.061L1010.96 160.061" stroke="#181818" stroke-width="5"/>
<path d="M670.912 160.061L681.429 160.061" stroke="#181818" stroke-width="5"/>
<path d="M339.046 160.061L349.563 160.061" stroke="#181818" stroke-width="5"/>
<path d="M3 164.825H8.02604" stroke="#181818" stroke-width="5"/>
<path d="M840.352 4.64453L840.352 218.488" stroke="#181818" stroke-width="5"/>
<path d="M2.50586 262.893L2.50586 233.679" stroke="#181818" stroke-width="5"/>
<path d="M2.50586 192.78L2.50586 120.331" stroke="#181818" stroke-width="5"/>
<path d="M1236.41 3.47607H1347.5V60.1505" stroke="#181818" stroke-width="5"/>
<rect x="22.8706" y="1.47656" width="48.0788" height="4" stroke="#181818"/>
<rect x="96.4893" y="1.47656" width="51.5845" height="4" stroke="#181818"/>
<rect x="189.973" y="1.47656" width="49.2474" height="4" stroke="#181818"/>
<rect x="270.602" y="1.47656" width="52.753" height="4" stroke="#181818"/>
<rect x="359.411" y="1.47656" width="52.753" height="4" stroke="#181818"/>
<rect x="437.704" y="1.47656" width="56.2586" height="4" stroke="#181818"/>
<rect x="517.164" y="1.47656" width="55.0901" height="4" stroke="#181818"/>
<rect x="598.962" y="1.47656" width="55.0901" height="4" stroke="#181818"/>
<rect x="685.435" y="1.47656" width="53.9216" height="4" stroke="#181818"/>
<rect x="766.474" y="1.47656" width="56.2586" height="4" stroke="#181818"/>
<rect x="860.717" y="1.47656" width="57.4272" height="4" stroke="#181818"/>
<rect x="946.02" y="1.47656" width="58.5957" height="4" stroke="#181818"/>
<rect x="1031.32" y="1.47656" width="51.5845" height="4" stroke="#181818"/>
<rect x="1123.64" y="1.47656" width="46.9103" height="4" stroke="#181818"/>
<rect x="1277.5" y="1.50073" width="46.9103" height="4" fill="#FFF8F3" stroke="#181818"/>
<rect x="1349.5" y="59.7786" width="55.2917" height="4" transform="rotate(90 1349.5 59.7786)" stroke="#181818"/>
<rect x="1349.5" y="188.445" width="40.2135" height="4" transform="rotate(90 1349.5 188.445)" stroke="#181818"/>
<rect x="1349.5" y="258.719" width="42.2361" height="4" transform="rotate(90 1349.5 258.719)" stroke="#181818"/>
<rect x="1349.5" y="387.259" width="59.7643" height="4" transform="rotate(90 1349.5 387.259)" stroke="#181818"/>
<rect x="1331.41" y="489.008" width="49.2604" height="4" transform="rotate(-180 1331.41 489.008)" stroke="#181818"/>
<rect x="1256.02" y="489.008" width="55.2917" height="4" transform="rotate(-180 1256.02 489.008)" stroke="#181818"/>
<rect x="1171.58" y="489.008" width="47.25" height="4" transform="rotate(-180 1171.58 489.008)" stroke="#181818"/>
<rect x="1085.13" y="489.008" width="53.2812" height="4" transform="rotate(-180 1085.13 489.008)" stroke="#181818"/>
<rect x="1004.71" y="489.008" width="57.3021" height="4" transform="rotate(-180 1004.71 489.008)" stroke="#181818"/>
<rect x="920.275" y="489.008" width="56.2969" height="4" transform="rotate(-180 920.275 489.008)" stroke="#181818"/>
<rect x="823.775" y="489.008" width="55.2917" height="4" transform="rotate(-180 823.775 489.008)" stroke="#181818"/>
<rect x="743.359" y="489.008" width="57.3021" height="4" transform="rotate(-180 743.359 489.008)" stroke="#181818"/>
<rect x="656.911" y="489.008" width="56.2969" height="4" transform="rotate(-180 656.911 489.008)" stroke="#181818"/>
<rect x="574.484" y="489.008" width="55.2917" height="4" transform="rotate(-180 574.484 489.008)" stroke="#181818"/>
<rect x="496.078" y="489.008" width="57.3021" height="4" transform="rotate(-180 496.078 489.008)" stroke="#181818"/>
<rect x="414.656" y="489.008" width="54.2865" height="4" transform="rotate(-180 414.656 489.008)" stroke="#181818"/>
<rect x="326.198" y="489.008" width="54.2865" height="4" transform="rotate(-180 326.198 489.008)" stroke="#181818"/>
<rect x="239.75" y="489.008" width="52.276" height="4" transform="rotate(-180 239.75 489.008)" stroke="#181818"/>
<rect x="165.364" y="489.008" width="54.2865" height="4" transform="rotate(-180 165.364 489.008)" stroke="#181818"/>
<rect x="88.9688" y="489.008" width="52.276" height="4" transform="rotate(-180 88.9688 489.008)" stroke="#181818"/>
<rect x="0.504883" y="452.865" width="62.1014" height="4" transform="rotate(-90 0.504883 452.865)" stroke="#181818"/>
<rect x="0.504883" y="309.135" width="45.7418" height="4" transform="rotate(-90 0.504883 309.135)" stroke="#181818"/>
<rect x="0.504883" y="233.179" width="39.899" height="4" transform="rotate(-90 0.504883 233.179)" stroke="#181818"/>
<rect x="0.504883" y="119.831" width="52.753" height="4" transform="rotate(-90 0.504883 119.831)" stroke="#181818"/>
<rect x="1141.46" y="43.7068" width="5.43546" height="84.3037" stroke="black"/>
<rect x="1141.74" y="43.7068" width="9.5169" height="41.474" transform="rotate(90 1141.74 43.7068)" stroke="black"/>
<rect x="1141.74" y="53.0552" width="9.5169" height="41.474" transform="rotate(90 1141.74 53.0552)" stroke="black"/>
<rect x="1141.74" y="62.4036" width="9.5169" height="41.474" transform="rotate(90 1141.74 62.4036)" stroke="black"/>
<rect x="1141.74" y="71.7517" width="9.5169" height="41.474" transform="rotate(90 1141.74 71.7517)" stroke="black"/>
<rect x="1141.74" y="81.1001" width="9.5169" height="41.474" transform="rotate(90 1141.74 81.1001)" stroke="black"/>
<rect x="1141.74" y="90.4485" width="9.5169" height="41.474" transform="rotate(90 1141.74 90.4485)" stroke="black"/>
<rect x="1141.74" y="99.7969" width="9.5169" height="41.474" transform="rotate(90 1141.74 99.7969)" stroke="black"/>
<rect x="1141.74" y="109.145" width="9.5169" height="41.474" transform="rotate(90 1141.74 109.145)" stroke="black"/>
<rect x="1141.74" y="118.493" width="9.5169" height="41.474" transform="rotate(90 1141.74 118.493)" stroke="black"/>
<rect x="1188.08" y="43.7068" width="9.5169" height="41.474" transform="rotate(90 1188.08 43.7068)" stroke="black"/>
<rect x="1188.08" y="53.0552" width="9.5169" height="41.474" transform="rotate(90 1188.08 53.0552)" stroke="black"/>
<rect x="1188.08" y="62.4036" width="9.5169" height="41.474" transform="rotate(90 1188.08 62.4036)" stroke="black"/>
<rect x="1188.08" y="71.7517" width="9.5169" height="41.474" transform="rotate(90 1188.08 71.7517)" stroke="black"/>
<rect x="1188.08" y="81.1001" width="9.5169" height="41.474" transform="rotate(90 1188.08 81.1001)" stroke="black"/>
<rect x="1188.08" y="90.4485" width="9.5169" height="41.474" transform="rotate(90 1188.08 90.4485)" stroke="black"/>
<rect x="1188.08" y="99.7969" width="9.5169" height="41.474" transform="rotate(90 1188.08 99.7969)" stroke="black"/>
<rect x="1188.08" y="109.145" width="9.5169" height="41.474" transform="rotate(90 1188.08 109.145)" stroke="black"/>
<rect x="1188.08" y="118.493" width="9.5169" height="41.474" transform="rotate(90 1188.08 118.493)" stroke="black"/>
<path d="M450.428 90.3226C449.447 90.3226 448.626 90.0001 447.967 89.355C447.322 88.696 447 87.8967 447 86.9572C447 86.0177 447.322 85.2254 447.967 84.5804C448.626 83.9213 449.447 83.5918 450.428 83.5918C451.41 83.5918 452.223 83.9213 452.868 84.5804C453.527 85.2254 453.857 86.0177 453.857 86.9572C453.857 87.8967 453.534 88.696 452.889 89.355C452.244 90.0001 451.424 90.3226 450.428 90.3226ZM443.214 83.8652H445.633V98.5889H443.74L436.798 88.5978V98.5889H434.38V83.8652H436.273L443.214 93.8563V83.8652ZM450.428 88.4295C450.863 88.4295 451.214 88.2893 451.48 88.0089C451.746 87.7284 451.88 87.3779 451.88 86.9572C451.88 86.5365 451.739 86.1859 451.459 85.9055C451.193 85.625 450.849 85.4848 450.428 85.4848C450.008 85.4848 449.657 85.625 449.377 85.9055C449.11 86.1859 448.977 86.5365 448.977 86.9572C448.977 87.3779 449.11 87.7284 449.377 88.0089C449.657 88.2893 450.008 88.4295 450.428 88.4295ZM447.273 93.7301V91.5846H453.625V93.7301H447.273ZM465.641 89.4181C467.043 89.4181 468.228 89.8388 469.196 90.6802C470.163 91.5075 470.647 92.6573 470.647 94.1297C470.647 95.6021 470.149 96.7589 469.154 97.6003C468.158 98.4416 466.938 98.8623 465.494 98.8623C464.33 98.8623 463.299 98.5959 462.402 98.063C461.504 97.5161 460.866 96.7309 460.488 95.7072L462.57 94.5083C462.963 95.8405 463.937 96.5065 465.494 96.5065C466.321 96.5065 466.98 96.2962 467.471 95.8755C467.976 95.4408 468.228 94.8589 468.228 94.1297C468.228 93.4005 467.983 92.8256 467.492 92.4049C467.001 91.9843 466.349 91.7739 465.536 91.7739H461.245L461.813 83.8652H470.016V86.1369H464.042L463.79 89.4181H465.641ZM482.029 96.78C481.019 98.1682 479.603 98.8623 477.78 98.8623C475.957 98.8623 474.534 98.1682 473.51 96.78C472.5 95.3917 471.996 93.5408 471.996 91.227C471.996 88.9133 472.5 87.0623 473.51 85.6741C474.534 84.2859 475.957 83.5918 477.78 83.5918C479.603 83.5918 481.019 84.2859 482.029 85.6741C483.052 87.0623 483.564 88.9133 483.564 91.227C483.564 93.5408 483.052 95.3917 482.029 96.78ZM477.78 96.5065C478.874 96.5065 479.708 96.0508 480.283 95.1393C480.858 94.2279 481.145 92.9238 481.145 91.227C481.145 89.5303 480.858 88.2262 480.283 87.3148C479.708 86.4033 478.874 85.9476 477.78 85.9476C476.7 85.9476 475.866 86.4033 475.277 87.3148C474.702 88.2262 474.414 89.5303 474.414 91.227C474.414 92.9238 474.702 94.2279 475.277 95.1393C475.866 96.0508 476.7 96.5065 477.78 96.5065ZM484.747 98.5889V96.6958L489.879 91.4584C491.127 90.2104 491.751 89.1307 491.751 88.2192C491.751 87.5041 491.534 86.9502 491.099 86.5575C490.678 86.1509 490.139 85.9476 489.48 85.9476C488.246 85.9476 487.334 86.5575 486.745 87.7775L484.705 86.5786C485.168 85.597 485.82 84.8538 486.661 84.349C487.502 83.8442 488.435 83.5918 489.458 83.5918C490.749 83.5918 491.856 83.9984 492.782 84.8117C493.707 85.625 494.17 86.7328 494.17 88.1351C494.17 89.6355 493.336 91.2341 491.667 92.9308L488.344 96.2541H494.443V98.5889H484.747ZM437.088 123.808C438.617 123.808 439.865 124.278 440.832 125.217C441.8 126.143 442.284 127.349 442.284 128.835C442.284 130.322 441.8 131.535 440.832 132.474C439.865 133.4 438.617 133.862 437.088 133.862C435.546 133.862 434.291 133.4 433.323 132.474C432.356 131.535 431.872 130.322 431.872 128.835C431.872 127.713 432.166 126.725 432.755 125.869L437.425 118.865H440.18L436.815 123.808H437.088ZM437.088 131.57C437.902 131.57 438.568 131.324 439.087 130.833C439.605 130.329 439.865 129.663 439.865 128.835C439.865 128.008 439.605 127.349 439.087 126.858C438.568 126.353 437.902 126.101 437.088 126.101C436.261 126.101 435.588 126.353 435.069 126.858C434.55 127.349 434.291 128.008 434.291 128.835C434.291 129.663 434.55 130.329 435.069 130.833C435.588 131.324 436.261 131.57 437.088 131.57ZM449.73 124.881C450.796 125.133 451.659 125.631 452.318 126.374C452.991 127.103 453.327 128.022 453.327 129.13C453.327 130.602 452.829 131.759 451.834 132.6C450.838 133.442 449.618 133.862 448.174 133.862C447.052 133.862 446.043 133.603 445.145 133.084C444.262 132.565 443.624 131.808 443.231 130.812L445.292 129.613C445.727 130.876 446.688 131.507 448.174 131.507C449.015 131.507 449.681 131.296 450.172 130.876C450.663 130.441 450.908 129.859 450.908 129.13C450.908 128.401 450.663 127.826 450.172 127.405C449.681 126.984 449.015 126.774 448.174 126.774H447.627L446.659 125.323L449.836 121.137H443.673V118.865H452.717V120.927L449.73 124.881ZM457.461 133.379C457.152 133.687 456.78 133.841 456.346 133.841C455.911 133.841 455.539 133.687 455.231 133.379C454.922 133.07 454.768 132.698 454.768 132.264C454.768 131.829 454.915 131.457 455.21 131.149C455.518 130.84 455.897 130.686 456.346 130.686C456.78 130.686 457.152 130.84 457.461 131.149C457.769 131.457 457.923 131.829 457.923 132.264C457.923 132.698 457.769 133.07 457.461 133.379ZM467.912 125.933C469.356 126.732 470.078 127.924 470.078 129.508C470.078 130.854 469.609 131.92 468.669 132.705C467.73 133.477 466.482 133.862 464.925 133.862C463.369 133.862 462.114 133.477 461.16 132.705C460.22 131.92 459.751 130.854 459.751 129.508C459.751 128.751 459.94 128.064 460.319 127.447C460.697 126.816 461.23 126.311 461.917 125.933C460.809 125.203 460.256 124.166 460.256 122.82C460.256 121.473 460.704 120.436 461.602 119.707C462.499 118.963 463.607 118.592 464.925 118.592C466.229 118.592 467.33 118.963 468.227 119.707C469.139 120.436 469.595 121.473 469.595 122.82C469.595 124.166 469.034 125.203 467.912 125.933ZM464.925 120.884C464.266 120.884 463.726 121.06 463.305 121.41C462.885 121.761 462.674 122.266 462.674 122.925C462.674 123.556 462.885 124.054 463.305 124.418C463.74 124.783 464.28 124.965 464.925 124.965C465.556 124.965 466.089 124.783 466.524 124.418C466.958 124.054 467.176 123.556 467.176 122.925C467.176 122.266 466.958 121.761 466.524 121.41C466.103 121.06 465.57 120.884 464.925 120.884ZM464.925 131.57C465.738 131.57 466.397 131.373 466.902 130.981C467.407 130.574 467.659 130.006 467.659 129.277C467.659 128.548 467.407 127.987 466.902 127.594C466.397 127.188 465.738 126.984 464.925 126.984C464.098 126.984 463.432 127.188 462.927 127.594C462.422 127.987 462.17 128.548 462.17 129.277C462.17 130.006 462.422 130.574 462.927 130.981C463.432 131.373 464.098 131.57 464.925 131.57ZM488.116 123.072V133.589H485.907V126.669L482.878 131.485H482.605L479.597 126.69V133.589H477.389V123.072H479.702L482.752 127.931L485.802 123.072H488.116ZM489.962 123.913V122.567L493.264 119.391C493.783 118.9 494.042 118.416 494.042 117.94C494.042 117.659 493.944 117.435 493.748 117.267C493.552 117.098 493.285 117.014 492.949 117.014C492.276 117.014 491.785 117.393 491.476 118.15L489.899 117.267C490.165 116.636 490.558 116.138 491.077 115.773C491.595 115.409 492.226 115.226 492.97 115.226C493.853 115.226 494.575 115.472 495.136 115.963C495.697 116.453 495.977 117.077 495.977 117.835C495.977 118.746 495.515 119.643 494.589 120.527L492.864 122.125H496.125V123.913H489.962Z" fill="black"/>
<path d="M434.774 107.477H494.774" stroke="black" stroke-width="3"/>
<path d="M290.887 90.3226C289.905 90.3226 289.085 90.0001 288.426 89.355C287.781 88.696 287.458 87.8967 287.458 86.9572C287.458 86.0177 287.781 85.2254 288.426 84.5804C289.085 83.9213 289.905 83.5918 290.887 83.5918C291.868 83.5918 292.681 83.9213 293.326 84.5804C293.986 85.2254 294.315 86.0177 294.315 86.9572C294.315 87.8967 293.993 88.696 293.347 89.355C292.702 90.0001 291.882 90.3226 290.887 90.3226ZM283.672 83.8652H286.091V98.5889H284.198L277.257 88.5978V98.5889H274.838V83.8652H276.731L283.672 93.8563V83.8652ZM290.887 88.4295C291.321 88.4295 291.672 88.2893 291.938 88.0089C292.205 87.7284 292.338 87.3779 292.338 86.9572C292.338 86.5365 292.198 86.1859 291.917 85.9055C291.651 85.625 291.307 85.4848 290.887 85.4848C290.466 85.4848 290.115 85.625 289.835 85.9055C289.568 86.1859 289.435 86.5365 289.435 86.9572C289.435 87.3779 289.568 87.7284 289.835 88.0089C290.115 88.2893 290.466 88.4295 290.887 88.4295ZM287.731 93.7301V91.5846H294.084V93.7301H287.731ZM306.099 89.4181C307.501 89.4181 308.686 89.8388 309.654 90.6802C310.621 91.5075 311.105 92.6573 311.105 94.1297C311.105 95.6021 310.607 96.7589 309.612 97.6003C308.616 98.4416 307.396 98.8623 305.952 98.8623C304.788 98.8623 303.757 98.5959 302.86 98.063C301.963 97.5161 301.325 96.7309 300.946 95.7072L303.028 94.5083C303.421 95.8405 304.395 96.5065 305.952 96.5065C306.779 96.5065 307.438 96.2962 307.929 95.8755C308.434 95.4408 308.686 94.8589 308.686 94.1297C308.686 93.4005 308.441 92.8256 307.95 92.4049C307.459 91.9843 306.807 91.7739 305.994 91.7739H301.703L302.271 83.8652H310.474V86.1369H304.501L304.248 89.4181H306.099ZM322.487 96.78C321.477 98.1682 320.061 98.8623 318.238 98.8623C316.415 98.8623 314.992 98.1682 313.968 96.78C312.959 95.3917 312.454 93.5408 312.454 91.227C312.454 88.9133 312.959 87.0623 313.968 85.6741C314.992 84.2859 316.415 83.5918 318.238 83.5918C320.061 83.5918 321.477 84.2859 322.487 85.6741C323.51 87.0623 324.022 88.9133 324.022 91.227C324.022 93.5408 323.51 95.3917 322.487 96.78ZM318.238 96.5065C319.332 96.5065 320.166 96.0508 320.741 95.1393C321.316 94.2279 321.603 92.9238 321.603 91.227C321.603 89.5303 321.316 88.2262 320.741 87.3148C320.166 86.4033 319.332 85.9476 318.238 85.9476C317.158 85.9476 316.324 86.4033 315.735 87.3148C315.16 88.2262 314.873 89.5303 314.873 91.227C314.873 92.9238 315.16 94.2279 315.735 95.1393C316.324 96.0508 317.158 96.5065 318.238 96.5065ZM328.594 83.8652H330.697V98.5889H328.279V86.4524L325.313 87.2937L324.724 85.2324L328.594 83.8652ZM269.981 133.589V131.696L275.113 126.458C276.361 125.21 276.985 124.131 276.985 123.219C276.985 122.504 276.768 121.95 276.333 121.558C275.913 121.151 275.373 120.948 274.714 120.948C273.48 120.948 272.568 121.558 271.979 122.777L269.939 121.579C270.402 120.597 271.054 119.854 271.895 119.349C272.737 118.844 273.669 118.592 274.693 118.592C275.983 118.592 277.091 118.998 278.016 119.812C278.942 120.625 279.404 121.733 279.404 123.135C279.404 124.635 278.57 126.234 276.901 127.931L273.578 131.254H279.678V133.589H269.981ZM291.996 128.688V130.939H290.313V133.589H287.874V130.939H280.638V128.688L285.707 118.865H288.336L283.267 128.688H287.874V124.86H290.313V128.688H291.996ZM296.162 133.379C295.854 133.687 295.482 133.841 295.048 133.841C294.613 133.841 294.241 133.687 293.933 133.379C293.624 133.07 293.47 132.698 293.47 132.264C293.47 131.829 293.617 131.457 293.912 131.149C294.22 130.84 294.599 130.686 295.048 130.686C295.482 130.686 295.854 130.84 296.162 131.149C296.471 131.457 296.625 131.829 296.625 132.264C296.625 132.698 296.471 133.07 296.162 133.379ZM307.954 131.78C306.945 133.168 305.528 133.862 303.705 133.862C301.882 133.862 300.459 133.168 299.436 131.78C298.426 130.392 297.921 128.541 297.921 126.227C297.921 123.913 298.426 122.062 299.436 120.674C300.459 119.286 301.882 118.592 303.705 118.592C305.528 118.592 306.945 119.286 307.954 120.674C308.978 122.062 309.49 123.913 309.49 126.227C309.49 128.541 308.978 130.392 307.954 131.78ZM303.705 131.507C304.799 131.507 305.633 131.051 306.208 130.139C306.783 129.228 307.071 127.924 307.071 126.227C307.071 124.53 306.783 123.226 306.208 122.315C305.633 121.403 304.799 120.948 303.705 120.948C302.626 120.948 301.791 121.403 301.202 122.315C300.627 123.226 300.34 124.53 300.34 126.227C300.34 127.924 300.627 129.228 301.202 130.139C301.791 131.051 302.626 131.507 303.705 131.507ZM327.639 123.072V133.589H325.431V126.669L322.402 131.485H322.129L319.121 126.69V133.589H316.912V123.072H319.226L322.276 127.931L325.326 123.072H327.639ZM329.485 123.913V122.567L332.788 119.391C333.307 118.9 333.566 118.416 333.566 117.94C333.566 117.659 333.468 117.435 333.272 117.267C333.075 117.098 332.809 117.014 332.472 117.014C331.799 117.014 331.308 117.393 331 118.15L329.422 117.267C329.689 116.636 330.081 116.138 330.6 115.773C331.119 115.409 331.75 115.226 332.493 115.226C333.377 115.226 334.099 115.472 334.66 115.963C335.221 116.453 335.501 117.077 335.501 117.835C335.501 118.746 335.038 119.643 334.113 120.527L332.388 122.125H335.648V123.913H329.485Z" fill="black"/>
<path d="M273 107.001H333" stroke="black" stroke-width="3"/>
<path d="M49.1742 189.649C48.1926 189.649 47.3723 189.326 46.7133 188.681C46.0682 188.022 45.7457 187.223 45.7457 186.283C45.7457 185.344 46.0682 184.552 46.7133 183.907C47.3723 183.247 48.1926 182.918 49.1742 182.918C50.1558 182.918 50.9691 183.247 51.6141 183.907C52.2732 184.552 52.6027 185.344 52.6027 186.283C52.6027 187.223 52.2802 188.022 51.6352 188.681C50.9901 189.326 50.1698 189.649 49.1742 189.649ZM41.9596 183.191H44.3785V197.915H42.4855L35.5443 187.924V197.915H33.1254V183.191H35.0185L41.9596 193.182V183.191ZM49.1742 187.756C49.6089 187.756 49.9595 187.615 50.2259 187.335C50.4923 187.055 50.6256 186.704 50.6256 186.283C50.6256 185.863 50.4853 185.512 50.2049 185.232C49.9385 184.951 49.5949 184.811 49.1742 184.811C48.7535 184.811 48.403 184.951 48.1225 185.232C47.8561 185.512 47.7229 185.863 47.7229 186.283C47.7229 186.704 47.8561 187.055 48.1225 187.335C48.403 187.615 48.7535 187.756 49.1742 187.756ZM46.0192 193.056V190.911H52.3714V193.056H46.0192ZM64.3869 188.744C65.7892 188.744 66.9741 189.165 67.9416 190.006C68.9092 190.834 69.393 191.984 69.393 193.456C69.393 194.928 68.8952 196.085 67.8996 196.926C66.904 197.768 65.684 198.188 64.2397 198.188C63.0758 198.188 62.0452 197.922 61.1477 197.389C60.2503 196.842 59.6122 196.057 59.2336 195.033L61.316 193.834C61.7086 195.167 62.6832 195.833 64.2397 195.833C65.067 195.833 65.7261 195.622 66.2169 195.202C66.7217 194.767 66.9741 194.185 66.9741 193.456C66.9741 192.727 66.7287 192.152 66.2379 191.731C65.7471 191.31 65.0951 191.1 64.2817 191.1H59.9909L60.5588 183.191H68.7619V185.463H62.7883L62.5359 188.744H64.3869ZM73.8999 183.191H76.0033V197.915H73.5844V185.779L70.6187 186.62L70.0297 184.559L73.8999 183.191ZM83.3666 188.744C84.7689 188.744 85.9538 189.165 86.9213 190.006C87.8889 190.834 88.3727 191.984 88.3727 193.456C88.3727 194.928 87.8749 196.085 86.8793 196.926C85.8837 197.768 84.6637 198.188 83.2194 198.188C82.0555 198.188 81.0249 197.922 80.1274 197.389C79.23 196.842 78.592 196.057 78.2133 195.033L80.2957 193.834C80.6883 195.167 81.6629 195.833 83.2194 195.833C84.0467 195.833 84.7058 195.622 85.1966 195.202C85.7014 194.767 85.9538 194.185 85.9538 193.456C85.9538 192.727 85.7084 192.152 85.2176 191.731C84.7268 191.31 84.0748 191.1 83.2615 191.1H78.9706L79.5385 183.191H87.7416V185.463H81.7681L81.5156 188.744H83.3666ZM46.1956 222.945C46.1956 224.067 45.9011 225.055 45.3121 225.911L40.6637 232.915H37.8872L41.2526 227.972H41.0002C39.4718 227.972 38.2167 227.509 37.2352 226.584C36.2676 225.644 35.7838 224.431 35.7838 222.945C35.7838 221.459 36.2676 220.253 37.2352 219.327C38.2167 218.388 39.4718 217.918 41.0002 217.918C42.5287 217.918 43.7767 218.388 44.7442 219.327C45.7118 220.253 46.1956 221.459 46.1956 222.945ZM38.2027 222.945C38.2027 223.758 38.4621 224.417 38.981 224.922C39.5138 225.427 40.1869 225.679 41.0002 225.679C41.8135 225.679 42.4796 225.434 42.9984 224.943C43.5173 224.438 43.7767 223.772 43.7767 222.945C43.7767 222.118 43.5173 221.459 42.9984 220.968C42.4796 220.463 41.8135 220.211 41.0002 220.211C40.1869 220.211 39.5138 220.463 38.981 220.968C38.4621 221.459 38.2027 222.118 38.2027 222.945ZM47.5895 232.705C47.281 233.013 46.9095 233.167 46.4748 233.167C46.0401 233.167 45.6685 233.013 45.36 232.705C45.0515 232.396 44.8972 232.025 44.8972 231.59C44.8972 231.155 45.0445 230.784 45.3389 230.475C45.6474 230.167 46.026 230.012 46.4748 230.012C46.9095 230.012 47.281 230.167 47.5895 230.475C47.898 230.784 48.0523 231.155 48.0523 231.59C48.0523 232.025 47.898 232.396 47.5895 232.705ZM49.4591 218.191H58.8191V220.295L53.6448 232.915H51.0997L56.1899 220.505H49.4591V218.191ZM76.7659 222.398V232.915H74.5573V225.995L71.5285 230.812H71.255L68.2472 226.016V232.915H66.0386V222.398H68.3524L71.4023 227.257L74.4522 222.398H76.7659ZM78.6119 223.239V221.893L81.9142 218.717C82.4331 218.226 82.6925 217.743 82.6925 217.266C82.6925 216.985 82.5943 216.761 82.398 216.593C82.2017 216.425 81.9353 216.34 81.5987 216.34C80.9256 216.34 80.4348 216.719 80.1264 217.476L78.5488 216.593C78.8152 215.962 79.2079 215.464 79.7267 215.099C80.2455 214.735 80.8766 214.553 81.6198 214.553C82.5032 214.553 83.2253 214.798 83.7862 215.289C84.3471 215.78 84.6276 216.404 84.6276 217.161C84.6276 218.072 84.1648 218.97 83.2394 219.853L81.5146 221.452H84.7748V223.239H78.6119Z" fill="black"/>
<path d="M30 206.803L90 206.803" stroke="black" stroke-width="3"/>
<path d="M78.0965 351.734C77.1149 351.734 76.2946 351.412 75.6355 350.767C74.9905 350.108 74.668 349.309 74.668 348.369C74.668 347.43 74.9905 346.637 75.6355 345.992C76.2946 345.333 77.1149 345.004 78.0965 345.004C79.0781 345.004 79.8914 345.333 80.5364 345.992C81.1955 346.637 81.525 347.43 81.525 348.369C81.525 349.309 81.2025 350.108 80.5574 350.767C79.9124 351.412 79.0921 351.734 78.0965 351.734ZM70.8819 345.277H73.3008V360.001H71.4077L64.4666 350.01V360.001H62.0477V345.277H63.9407L70.8819 355.268V345.277ZM78.0965 349.841C78.5312 349.841 78.8817 349.701 79.1482 349.421C79.4146 349.14 79.5478 348.79 79.5478 348.369C79.5478 347.948 79.4076 347.598 79.1271 347.317C78.8607 347.037 78.5172 346.897 78.0965 346.897C77.6758 346.897 77.3252 347.037 77.0448 347.317C76.7784 347.598 76.6452 347.948 76.6452 348.369C76.6452 348.79 76.7784 349.14 77.0448 349.421C77.3252 349.701 77.6758 349.841 78.0965 349.841ZM74.9414 355.142V352.996H81.2936V355.142H74.9414ZM93.3092 350.83C94.7114 350.83 95.8963 351.251 96.8639 352.092C97.8314 352.919 98.3152 354.069 98.3152 355.542C98.3152 357.014 97.8174 358.171 96.8218 359.012C95.8262 359.853 94.6063 360.274 93.1619 360.274C91.9981 360.274 90.9674 360.008 90.07 359.475C89.1725 358.928 88.5345 358.143 88.1559 357.119L90.2382 355.92C90.6309 357.252 91.6054 357.918 93.1619 357.918C93.9893 357.918 94.6483 357.708 95.1391 357.287C95.6439 356.853 95.8963 356.271 95.8963 355.542C95.8963 354.812 95.6509 354.237 95.1601 353.817C94.6694 353.396 94.0173 353.186 93.204 353.186H88.9131L89.481 345.277H97.6842V347.549H91.7106L91.4582 350.83H93.3092ZM102.822 345.277H104.926V360.001H102.507V347.864L99.5409 348.706L98.952 346.644L102.822 345.277ZM118.347 355.1V357.35H116.664V360.001H114.224V357.35H106.988V355.1L112.058 345.277H114.687L109.618 355.1H114.224V351.272H116.664V355.1H118.347ZM62.3439 385.83C63.7462 385.83 64.9311 386.251 65.8986 387.092C66.8662 387.919 67.3499 389.069 67.3499 390.542C67.3499 392.014 66.8521 393.171 65.8565 394.012C64.8609 394.853 63.641 395.274 62.1967 395.274C61.0328 395.274 60.0021 395.008 59.1047 394.475C58.2073 393.928 57.5692 393.143 57.1906 392.119L59.273 390.92C59.6656 392.252 60.6402 392.918 62.1967 392.918C63.024 392.918 63.683 392.708 64.1738 392.287C64.6786 391.853 64.9311 391.271 64.9311 390.542C64.9311 389.812 64.6857 389.237 64.1949 388.817C63.7041 388.396 63.052 388.186 62.2387 388.186H57.9478L58.5157 380.277H66.7189V382.549H60.7453L60.4929 385.83H62.3439ZM74.8413 386.293C75.907 386.545 76.7694 387.043 77.4284 387.786C78.1015 388.515 78.438 389.434 78.438 390.542C78.438 392.014 77.9402 393.171 76.9446 394.012C75.949 394.853 74.7291 395.274 73.2848 395.274C72.163 395.274 71.1533 395.015 70.2559 394.496C69.3725 393.977 68.7344 393.22 68.3418 392.224L70.4031 391.025C70.8378 392.287 71.7984 392.918 73.2848 392.918C74.1261 392.918 74.7922 392.708 75.283 392.287C75.7738 391.853 76.0191 391.271 76.0191 390.542C76.0191 389.812 75.7738 389.237 75.283 388.817C74.7922 388.396 74.1261 388.186 73.2848 388.186H72.7379L71.7703 386.734L74.9464 382.549H68.7835V380.277H77.8281V382.338L74.8413 386.293ZM82.5713 394.79C82.2628 395.099 81.8912 395.253 81.4565 395.253C81.0218 395.253 80.6503 395.099 80.3418 394.79C80.0333 394.482 79.879 394.11 79.879 393.676C79.879 393.241 80.0262 392.869 80.3207 392.561C80.6292 392.252 81.0078 392.098 81.4565 392.098C81.8912 392.098 82.2628 392.252 82.5713 392.561C82.8798 392.869 83.0341 393.241 83.0341 393.676C83.0341 394.11 82.8798 394.482 82.5713 394.79ZM94.3631 393.192C93.3535 394.58 91.9372 395.274 90.1143 395.274C88.2913 395.274 86.868 394.58 85.8444 393.192C84.8348 391.804 84.33 389.953 84.33 387.639C84.33 385.325 84.8348 383.474 85.8444 382.086C86.868 380.698 88.2913 380.004 90.1143 380.004C91.9372 380.004 93.3535 380.698 94.3631 382.086C95.3867 383.474 95.8985 385.325 95.8985 387.639C95.8985 389.953 95.3867 391.804 94.3631 393.192ZM90.1143 392.918C91.208 392.918 92.0424 392.463 92.6173 391.551C93.1922 390.64 93.4797 389.336 93.4797 387.639C93.4797 385.942 93.1922 384.638 92.6173 383.727C92.0424 382.815 91.208 382.359 90.1143 382.359C89.0345 382.359 88.2002 382.815 87.6112 383.727C87.0363 384.638 86.7488 385.942 86.7488 387.639C86.7488 389.336 87.0363 390.64 87.6112 391.551C88.2002 392.463 89.0345 392.918 90.1143 392.918ZM114.048 384.484V395.001H111.84V388.081L108.811 392.897H108.537L105.53 388.102V395.001H103.321V384.484H105.635L108.685 389.343L111.735 384.484H114.048ZM115.894 385.325V383.979L119.197 380.803C119.715 380.312 119.975 379.828 119.975 379.352C119.975 379.071 119.877 378.847 119.68 378.679C119.484 378.51 119.218 378.426 118.881 378.426C118.208 378.426 117.717 378.805 117.409 379.562L115.831 378.679C116.098 378.047 116.49 377.55 117.009 377.185C117.528 376.821 118.159 376.638 118.902 376.638C119.786 376.638 120.508 376.884 121.069 377.374C121.63 377.865 121.91 378.489 121.91 379.246C121.91 380.158 121.447 381.055 120.522 381.939L118.797 383.537H122.057V385.325H115.894Z" fill="black"/>
<path d="M59.9375 368.888L119.937 368.888" stroke="black" stroke-width="3"/>
<path d="M250.518 351.734C249.536 351.734 248.716 351.412 248.057 350.767C247.412 350.108 247.089 349.309 247.089 348.369C247.089 347.43 247.412 346.637 248.057 345.992C248.716 345.333 249.536 345.004 250.518 345.004C251.499 345.004 252.312 345.333 252.957 345.992C253.617 346.637 253.946 347.43 253.946 348.369C253.946 349.309 253.624 350.108 252.979 350.767C252.333 351.412 251.513 351.734 250.518 351.734ZM243.303 345.277H245.722V360.001H243.829L236.888 350.01V360.001H234.469V345.277H236.362L243.303 355.268V345.277ZM250.518 349.841C250.952 349.841 251.303 349.701 251.569 349.421C251.836 349.14 251.969 348.79 251.969 348.369C251.969 347.948 251.829 347.598 251.548 347.317C251.282 347.037 250.938 346.897 250.518 346.897C250.097 346.897 249.746 347.037 249.466 347.317C249.199 347.598 249.066 347.948 249.066 348.369C249.066 348.79 249.199 349.14 249.466 349.421C249.746 349.701 250.097 349.841 250.518 349.841ZM247.363 355.142V352.996H253.715V355.142H247.363ZM265.73 350.83C267.133 350.83 268.317 351.251 269.285 352.092C270.253 352.919 270.736 354.069 270.736 355.542C270.736 357.014 270.239 358.171 269.243 359.012C268.247 359.853 267.027 360.274 265.583 360.274C264.419 360.274 263.388 360.008 262.491 359.475C261.594 358.928 260.956 358.143 260.577 357.119L262.659 355.92C263.052 357.252 264.027 357.918 265.583 357.918C266.41 357.918 267.069 357.708 267.56 357.287C268.065 356.853 268.317 356.271 268.317 355.542C268.317 354.812 268.072 354.237 267.581 353.817C267.09 353.396 266.438 353.186 265.625 353.186H261.334L261.902 345.277H270.105V347.549H264.132L263.879 350.83H265.73ZM275.243 345.277H277.347V360.001H274.928V347.864L271.962 348.706L271.373 346.644L275.243 345.277ZM285.951 351.293C287.017 351.545 287.879 352.043 288.538 352.786C289.211 353.515 289.548 354.434 289.548 355.542C289.548 357.014 289.05 358.171 288.054 359.012C287.059 359.853 285.839 360.274 284.394 360.274C283.273 360.274 282.263 360.015 281.366 359.496C280.482 358.977 279.844 358.22 279.452 357.224L281.513 356.025C281.948 357.287 282.908 357.918 284.394 357.918C285.236 357.918 285.902 357.708 286.393 357.287C286.883 356.853 287.129 356.271 287.129 355.542C287.129 354.812 286.883 354.237 286.393 353.817C285.902 353.396 285.236 353.186 284.394 353.186H283.848L282.88 351.734L286.056 347.549H279.893V345.277H288.938V347.338L285.951 351.293ZM241.593 390.1V392.35H239.91V395.001H237.47V392.35H230.235V390.1L235.304 380.277H237.933L232.864 390.1H237.47V386.272H239.91V390.1H241.593ZM254 390.1V392.35H252.317V395.001H249.877V392.35H242.641V390.1L247.711 380.277H250.34L245.271 390.1H249.877V386.272H252.317V390.1H254ZM258.166 394.79C257.857 395.099 257.486 395.253 257.051 395.253C256.616 395.253 256.245 395.099 255.936 394.79C255.628 394.482 255.474 394.11 255.474 393.676C255.474 393.241 255.621 392.869 255.915 392.561C256.224 392.252 256.602 392.098 257.051 392.098C257.486 392.098 257.857 392.252 258.166 392.561C258.474 392.869 258.629 393.241 258.629 393.676C258.629 394.11 258.474 394.482 258.166 394.79ZM263.864 380.277H265.967V395.001H263.548V382.864L260.582 383.706L259.993 381.644L263.864 380.277ZM284.857 384.484V395.001H282.648V388.081L279.619 392.897H279.346L276.338 388.102V395.001H274.13V384.484H276.443L279.493 389.343L282.543 384.484H284.857ZM286.703 385.325V383.979L290.005 380.803C290.524 380.312 290.783 379.828 290.783 379.352C290.783 379.071 290.685 378.847 290.489 378.679C290.293 378.51 290.026 378.426 289.69 378.426C289.017 378.426 288.526 378.805 288.217 379.562L286.64 378.679C286.906 378.047 287.299 377.55 287.818 377.185C288.337 376.821 288.968 376.638 289.711 376.638C290.594 376.638 291.316 376.884 291.877 377.374C292.438 377.865 292.719 378.489 292.719 379.246C292.719 380.158 292.256 381.055 291.33 381.939L289.606 383.537H292.866V385.325H286.703Z" fill="black"/>
<path d="M229 369.001H294" stroke="black" stroke-width="3"/>
<path d="M414.49 351.734C413.508 351.734 412.688 351.412 412.029 350.767C411.384 350.108 411.061 349.309 411.061 348.369C411.061 347.43 411.384 346.637 412.029 345.992C412.688 345.333 413.508 345.004 414.49 345.004C415.472 345.004 416.285 345.333 416.93 345.992C417.589 346.637 417.918 347.43 417.918 348.369C417.918 349.309 417.596 350.108 416.951 350.767C416.306 351.412 415.486 351.734 414.49 351.734ZM407.275 345.277H409.694V360.001H407.801L400.86 350.01V360.001H398.441V345.277H400.334L407.275 355.268V345.277ZM414.49 349.841C414.925 349.841 415.275 349.701 415.542 349.421C415.808 349.14 415.941 348.79 415.941 348.369C415.941 347.948 415.801 347.598 415.521 347.317C415.254 347.037 414.911 346.897 414.49 346.897C414.069 346.897 413.719 347.037 413.438 347.317C413.172 347.598 413.039 347.948 413.039 348.369C413.039 348.79 413.172 349.14 413.438 349.421C413.719 349.701 414.069 349.841 414.49 349.841ZM411.335 355.142V352.996H417.687V355.142H411.335ZM429.703 350.83C431.105 350.83 432.29 351.251 433.257 352.092C434.225 352.919 434.709 354.069 434.709 355.542C434.709 357.014 434.211 358.171 433.215 359.012C432.22 359.853 431 360.274 429.555 360.274C428.392 360.274 427.361 360.008 426.463 359.475C425.566 358.928 424.928 358.143 424.549 357.119L426.632 355.92C427.024 357.252 427.999 357.918 429.555 357.918C430.383 357.918 431.042 357.708 431.533 357.287C432.037 356.853 432.29 356.271 432.29 355.542C432.29 354.812 432.044 354.237 431.554 353.817C431.063 353.396 430.411 353.186 429.597 353.186H425.307L425.875 345.277H434.078V347.549H428.104L427.852 350.83H429.703ZM439.216 345.277H441.319V360.001H438.9V347.864L435.934 348.706L435.345 346.644L439.216 345.277ZM443.55 360.001V358.108L448.682 352.87C449.93 351.622 450.554 350.543 450.554 349.631C450.554 348.916 450.337 348.362 449.902 347.969C449.482 347.563 448.942 347.359 448.283 347.359C447.049 347.359 446.137 347.969 445.548 349.189L443.508 347.99C443.971 347.009 444.623 346.266 445.464 345.761C446.306 345.256 447.238 345.004 448.262 345.004C449.552 345.004 450.66 345.41 451.585 346.224C452.511 347.037 452.973 348.145 452.973 349.547C452.973 351.047 452.139 352.646 450.47 354.343L447.147 357.666H453.247V360.001H443.55ZM404.148 390.1V392.35H402.465V395.001H400.025V392.35H392.79V390.1L397.859 380.277H400.488L395.419 390.1H400.025V386.272H402.465V390.1H404.148ZM410.292 385.83C411.694 385.83 412.879 386.251 413.846 387.092C414.814 387.919 415.298 389.069 415.298 390.542C415.298 392.014 414.8 393.171 413.804 394.012C412.809 394.853 411.589 395.274 410.144 395.274C408.98 395.274 407.95 395.008 407.052 394.475C406.155 393.928 405.517 393.143 405.138 392.119L407.221 390.92C407.613 392.252 408.588 392.918 410.144 392.918C410.972 392.918 411.631 392.708 412.122 392.287C412.626 391.853 412.879 391.271 412.879 390.542C412.879 389.812 412.633 389.237 412.143 388.817C411.652 388.396 411 388.186 410.186 388.186H405.896L406.463 380.277H414.667V382.549H408.693L408.441 385.83H410.292ZM419.365 394.79C419.057 395.099 418.685 395.253 418.251 395.253C417.816 395.253 417.444 395.099 417.136 394.79C416.827 394.482 416.673 394.11 416.673 393.676C416.673 393.241 416.82 392.869 417.115 392.561C417.423 392.252 417.802 392.098 418.251 392.098C418.685 392.098 419.057 392.252 419.365 392.561C419.674 392.869 419.828 393.241 419.828 393.676C419.828 394.11 419.674 394.482 419.365 394.79ZM429.817 387.344C431.261 388.144 431.983 389.336 431.983 390.92C431.983 392.266 431.513 393.332 430.574 394.117C429.634 394.889 428.386 395.274 426.83 395.274C425.273 395.274 424.018 394.889 423.065 394.117C422.125 393.332 421.656 392.266 421.656 390.92C421.656 390.163 421.845 389.476 422.223 388.859C422.602 388.228 423.135 387.723 423.822 387.344C422.714 386.615 422.16 385.578 422.16 384.231C422.16 382.885 422.609 381.848 423.507 381.118C424.404 380.375 425.512 380.004 426.83 380.004C428.134 380.004 429.235 380.375 430.132 381.118C431.044 381.848 431.499 382.885 431.499 384.231C431.499 385.578 430.938 386.615 429.817 387.344ZM426.83 382.296C426.171 382.296 425.631 382.472 425.21 382.822C424.79 383.173 424.579 383.678 424.579 384.337C424.579 384.968 424.79 385.465 425.21 385.83C425.645 386.195 426.185 386.377 426.83 386.377C427.461 386.377 427.994 386.195 428.428 385.83C428.863 385.465 429.081 384.968 429.081 384.337C429.081 383.678 428.863 383.173 428.428 382.822C428.008 382.472 427.475 382.296 426.83 382.296ZM426.83 392.981C427.643 392.981 428.302 392.785 428.807 392.393C429.312 391.986 429.564 391.418 429.564 390.689C429.564 389.96 429.312 389.399 428.807 389.006C428.302 388.599 427.643 388.396 426.83 388.396C426.003 388.396 425.336 388.599 424.832 389.006C424.327 389.399 424.074 389.96 424.074 390.689C424.074 391.418 424.327 391.986 424.832 392.393C425.336 392.785 426.003 392.981 426.83 392.981ZM450.021 384.484V395.001H447.812V388.081L444.783 392.897H444.51L441.502 388.102V395.001H439.293V384.484H441.607L444.657 389.343L447.707 384.484H450.021ZM451.867 385.325V383.979L455.169 380.803C455.688 380.312 455.947 379.828 455.947 379.352C455.947 379.071 455.849 378.847 455.653 378.679C455.456 378.51 455.19 378.426 454.853 378.426C454.18 378.426 453.69 378.805 453.381 379.562L451.804 378.679C452.07 378.047 452.463 377.55 452.981 377.185C453.5 376.821 454.131 376.638 454.875 376.638C455.758 376.638 456.48 376.884 457.041 377.374C457.602 377.865 457.882 378.489 457.882 379.246C457.882 380.158 457.42 381.055 456.494 381.939L454.769 383.537H458.03V385.325H451.867Z" fill="black"/>
<path d="M393.706 368.889L453.706 368.889" stroke="black" stroke-width="3"/>
<path d="M743.432 351.734C742.451 351.734 741.63 351.412 740.971 350.767C740.326 350.108 740.004 349.309 740.004 348.369C740.004 347.43 740.326 346.637 740.971 345.992C741.63 345.333 742.451 345.004 743.432 345.004C744.414 345.004 745.227 345.333 745.872 345.992C746.531 346.637 746.861 347.43 746.861 348.369C746.861 349.309 746.538 350.108 745.893 350.767C745.248 351.412 744.428 351.734 743.432 351.734ZM736.218 345.277H738.636V360.001H736.743L729.802 350.01V360.001H727.383V345.277H729.276L736.218 355.268V345.277ZM743.432 349.841C743.867 349.841 744.217 349.701 744.484 349.421C744.75 349.14 744.883 348.79 744.883 348.369C744.883 347.948 744.743 347.598 744.463 347.317C744.196 347.037 743.853 346.897 743.432 346.897C743.011 346.897 742.661 347.037 742.38 347.317C742.114 347.598 741.981 347.948 741.981 348.369C741.981 348.79 742.114 349.14 742.38 349.421C742.661 349.701 743.011 349.841 743.432 349.841ZM740.277 355.142V352.996H746.629V355.142H740.277ZM758.645 350.83C760.047 350.83 761.232 351.251 762.2 352.092C763.167 352.919 763.651 354.069 763.651 355.542C763.651 357.014 763.153 358.171 762.157 359.012C761.162 359.853 759.942 360.274 758.498 360.274C757.334 360.274 756.303 360.008 755.406 359.475C754.508 358.928 753.87 358.143 753.492 357.119L755.574 355.92C755.966 357.252 756.941 357.918 758.498 357.918C759.325 357.918 759.984 357.708 760.475 357.287C760.98 356.853 761.232 356.271 761.232 355.542C761.232 354.812 760.987 354.237 760.496 353.817C760.005 353.396 759.353 353.186 758.54 353.186H754.249L754.817 345.277H763.02V347.549H757.046L756.794 350.83H758.645ZM768.158 345.277H770.261V360.001H767.842V347.864L764.877 348.706L764.288 346.644L768.158 345.277ZM782.715 358.192C781.705 359.58 780.289 360.274 778.466 360.274C776.643 360.274 775.22 359.58 774.196 358.192C773.186 356.804 772.682 354.953 772.682 352.639C772.682 350.325 773.186 348.474 774.196 347.086C775.22 345.698 776.643 345.004 778.466 345.004C780.289 345.004 781.705 345.698 782.715 347.086C783.738 348.474 784.25 350.325 784.25 352.639C784.25 354.953 783.738 356.804 782.715 358.192ZM778.466 357.918C779.56 357.918 780.394 357.463 780.969 356.551C781.544 355.64 781.831 354.336 781.831 352.639C781.831 350.942 781.544 349.638 780.969 348.727C780.394 347.815 779.56 347.359 778.466 347.359C777.386 347.359 776.552 347.815 775.963 348.727C775.388 349.638 775.1 350.942 775.1 352.639C775.1 354.336 775.388 355.64 775.963 356.551C776.552 357.463 777.386 357.918 778.466 357.918ZM735.452 390.1V392.35H733.77V395.001H731.33V392.35H724.094V390.1L729.163 380.277H731.793L726.723 390.1H731.33V386.272H733.77V390.1H735.452ZM747.859 390.1V392.35H746.176V395.001H743.736V392.35H736.501V390.1L741.57 380.277H744.199L739.13 390.1H743.736V386.272H746.176V390.1H747.859ZM752.025 394.79C751.717 395.099 751.345 395.253 750.911 395.253C750.476 395.253 750.104 395.099 749.796 394.79C749.487 394.482 749.333 394.11 749.333 393.676C749.333 393.241 749.48 392.869 749.775 392.561C750.083 392.252 750.462 392.098 750.911 392.098C751.345 392.098 751.717 392.252 752.025 392.561C752.334 392.869 752.488 393.241 752.488 393.676C752.488 394.11 752.334 394.482 752.025 394.79ZM757.723 380.277H759.826V395.001H757.408V382.864L754.442 383.706L753.853 381.644L757.723 380.277ZM778.716 384.484V395.001H776.508V388.081L773.479 392.897H773.205L770.198 388.102V395.001H767.989V384.484H770.303L773.353 389.343L776.403 384.484H778.716ZM780.562 385.325V383.979L783.865 380.803C784.383 380.312 784.643 379.828 784.643 379.352C784.643 379.071 784.545 378.847 784.348 378.679C784.152 378.51 783.886 378.426 783.549 378.426C782.876 378.426 782.385 378.805 782.077 379.562L780.499 378.679C780.766 378.047 781.158 377.55 781.677 377.185C782.196 376.821 782.827 376.638 783.57 376.638C784.454 376.638 785.176 376.884 785.737 377.374C786.298 377.865 786.578 378.489 786.578 379.246C786.578 380.158 786.115 381.055 785.19 381.939L783.465 383.537H786.725V385.325H780.562Z" fill="black"/>
<path d="M727 369L785 369" stroke="black" stroke-width="3"/>
<path d="M576.143 351.734C575.162 351.734 574.342 351.412 573.683 350.767C573.038 350.108 572.715 349.309 572.715 348.369C572.715 347.43 573.038 346.637 573.683 345.992C574.342 345.333 575.162 345.004 576.143 345.004C577.125 345.004 577.938 345.333 578.583 345.992C579.242 346.637 579.572 347.43 579.572 348.369C579.572 349.309 579.249 350.108 578.604 350.767C577.959 351.412 577.139 351.734 576.143 351.734ZM568.929 345.277H571.348V360.001H569.455L562.514 350.01V360.001H560.095V345.277H561.988L568.929 355.268V345.277ZM576.143 349.841C576.578 349.841 576.929 349.701 577.195 349.421C577.462 349.14 577.595 348.79 577.595 348.369C577.595 347.948 577.455 347.598 577.174 347.317C576.908 347.037 576.564 346.897 576.143 346.897C575.723 346.897 575.372 347.037 575.092 347.317C574.825 347.598 574.692 347.948 574.692 348.369C574.692 348.79 574.825 349.14 575.092 349.421C575.372 349.701 575.723 349.841 576.143 349.841ZM572.988 355.142V352.996H579.341V355.142H572.988ZM591.356 350.83C592.758 350.83 593.943 351.251 594.911 352.092C595.878 352.919 596.362 354.069 596.362 355.542C596.362 357.014 595.864 358.171 594.869 359.012C593.873 359.853 592.653 360.274 591.209 360.274C590.045 360.274 589.014 360.008 588.117 359.475C587.22 358.928 586.582 358.143 586.203 357.119L588.285 355.92C588.678 357.252 589.652 357.918 591.209 357.918C592.036 357.918 592.695 357.708 593.186 357.287C593.691 356.853 593.943 356.271 593.943 355.542C593.943 354.812 593.698 354.237 593.207 353.817C592.716 353.396 592.064 353.186 591.251 353.186H586.96L587.528 345.277H595.731V347.549H589.758L589.505 350.83H591.356ZM600.869 345.277H602.973V360.001H600.554V347.864L597.588 348.706L596.999 346.644L600.869 345.277ZM608.695 345.277H610.799V360.001H608.38V347.864L605.414 348.706L604.825 346.644L608.695 345.277ZM565.052 390.1V392.35H563.369V395.001H560.929V392.35H553.694V390.1L558.763 380.277H561.392L556.323 390.1H560.929V386.272H563.369V390.1H565.052ZM571.195 385.83C572.598 385.83 573.783 386.251 574.75 387.092C575.718 387.919 576.201 389.069 576.201 390.542C576.201 392.014 575.704 393.171 574.708 394.012C573.712 394.853 572.492 395.274 571.048 395.274C569.884 395.274 568.854 395.008 567.956 394.475C567.059 393.928 566.421 393.143 566.042 392.119L568.124 390.92C568.517 392.252 569.492 392.918 571.048 392.918C571.875 392.918 572.535 392.708 573.025 392.287C573.53 391.853 573.783 391.271 573.783 390.542C573.783 389.812 573.537 389.237 573.046 388.817C572.556 388.396 571.904 388.186 571.09 388.186H566.799L567.367 380.277H575.57V382.549H569.597L569.344 385.83H571.195ZM580.269 394.79C579.961 395.099 579.589 395.253 579.154 395.253C578.72 395.253 578.348 395.099 578.04 394.79C577.731 394.482 577.577 394.11 577.577 393.676C577.577 393.241 577.724 392.869 578.019 392.561C578.327 392.252 578.706 392.098 579.154 392.098C579.589 392.098 579.961 392.252 580.269 392.561C580.578 392.869 580.732 393.241 580.732 393.676C580.732 394.11 580.578 394.482 580.269 394.79ZM591.282 385.031C591.282 386.153 590.987 387.141 590.398 387.996L585.75 395.001H582.973L586.339 390.058H586.086C584.558 390.058 583.303 389.595 582.321 388.67C581.354 387.73 580.87 386.517 580.87 385.031C580.87 383.544 581.354 382.338 582.321 381.413C583.303 380.473 584.558 380.004 586.086 380.004C587.615 380.004 588.863 380.473 589.83 381.413C590.798 382.338 591.282 383.544 591.282 385.031ZM583.289 385.031C583.289 385.844 583.548 386.503 584.067 387.008C584.6 387.513 585.273 387.765 586.086 387.765C586.9 387.765 587.566 387.52 588.085 387.029C588.604 386.524 588.863 385.858 588.863 385.031C588.863 384.203 588.604 383.544 588.085 383.054C587.566 382.549 586.9 382.296 586.086 382.296C585.273 382.296 584.6 382.549 584.067 383.054C583.548 383.544 583.289 384.203 583.289 385.031ZM609.117 384.484V395.001H606.908V388.081L603.879 392.897H603.606L600.598 388.102V395.001H598.39V384.484H600.703L603.753 389.343L606.803 384.484H609.117ZM610.963 385.325V383.979L614.265 380.803C614.784 380.312 615.043 379.828 615.043 379.352C615.043 379.071 614.945 378.847 614.749 378.679C614.553 378.51 614.286 378.426 613.95 378.426C613.277 378.426 612.786 378.805 612.477 379.562L610.9 378.679C611.166 378.047 611.559 377.55 612.078 377.185C612.597 376.821 613.228 376.638 613.971 376.638C614.854 376.638 615.576 376.884 616.137 377.374C616.698 377.865 616.979 378.489 616.979 379.246C616.979 380.158 616.516 381.055 615.59 381.939L613.866 383.537H617.126V385.325H610.963Z" fill="black"/>
<path d="M551 369.001L619 369.001" stroke="black" stroke-width="3"/>
<path d="M906.941 351.734C905.96 351.734 905.139 351.412 904.48 350.767C903.835 350.108 903.513 349.309 903.513 348.369C903.513 347.43 903.835 346.637 904.48 345.992C905.139 345.333 905.96 345.004 906.941 345.004C907.923 345.004 908.736 345.333 909.381 345.992C910.04 346.637 910.37 347.43 910.37 348.369C910.37 349.309 910.047 350.108 909.402 350.767C908.757 351.412 907.937 351.734 906.941 351.734ZM899.727 345.277H902.146V360.001H900.253L893.311 350.01V360.001H890.893V345.277H892.786L899.727 355.268V345.277ZM906.941 349.841C907.376 349.841 907.727 349.701 907.993 349.421C908.26 349.14 908.393 348.79 908.393 348.369C908.393 347.948 908.252 347.598 907.972 347.317C907.706 347.037 907.362 346.897 906.941 346.897C906.521 346.897 906.17 347.037 905.89 347.317C905.623 347.598 905.49 347.948 905.49 348.369C905.49 348.79 905.623 349.14 905.89 349.421C906.17 349.701 906.521 349.841 906.941 349.841ZM903.786 355.142V352.996H910.139V355.142H903.786ZM922.154 350.83C923.556 350.83 924.741 351.251 925.709 352.092C926.676 352.919 927.16 354.069 927.16 355.542C927.16 357.014 926.662 358.171 925.667 359.012C924.671 359.853 923.451 360.274 922.007 360.274C920.843 360.274 919.812 360.008 918.915 359.475C918.017 358.928 917.379 358.143 917.001 357.119L919.083 355.92C919.476 357.252 920.45 357.918 922.007 357.918C922.834 357.918 923.493 357.708 923.984 357.287C924.489 356.853 924.741 356.271 924.741 355.542C924.741 354.812 924.496 354.237 924.005 353.817C923.514 353.396 922.862 353.186 922.049 353.186H917.758L918.326 345.277H926.529V347.549H920.556L920.303 350.83H922.154ZM938.542 358.192C937.532 359.58 936.116 360.274 934.293 360.274C932.47 360.274 931.047 359.58 930.023 358.192C929.013 356.804 928.509 354.953 928.509 352.639C928.509 350.325 929.013 348.474 930.023 347.086C931.047 345.698 932.47 345.004 934.293 345.004C936.116 345.004 937.532 345.698 938.542 347.086C939.565 348.474 940.077 350.325 940.077 352.639C940.077 354.953 939.565 356.804 938.542 358.192ZM934.293 357.918C935.387 357.918 936.221 357.463 936.796 356.551C937.371 355.64 937.658 354.336 937.658 352.639C937.658 350.942 937.371 349.638 936.796 348.727C936.221 347.815 935.387 347.359 934.293 347.359C933.213 347.359 932.379 347.815 931.79 348.727C931.215 349.638 930.927 350.942 930.927 352.639C930.927 354.336 931.215 355.64 931.79 356.551C932.379 357.463 933.213 357.918 934.293 357.918ZM951.854 350.031C951.854 351.153 951.559 352.141 950.97 352.996L946.322 360.001H943.545L946.911 355.058H946.658C945.13 355.058 943.875 354.595 942.893 353.67C941.926 352.73 941.442 351.517 941.442 350.031C941.442 348.544 941.926 347.338 942.893 346.413C943.875 345.473 945.13 345.004 946.658 345.004C948.187 345.004 949.435 345.473 950.402 346.413C951.37 347.338 951.854 348.544 951.854 350.031ZM943.861 350.031C943.861 350.844 944.12 351.503 944.639 352.008C945.172 352.513 945.845 352.765 946.658 352.765C947.472 352.765 948.138 352.52 948.656 352.029C949.175 351.524 949.435 350.858 949.435 350.031C949.435 349.203 949.175 348.544 948.656 348.054C948.138 347.549 947.472 347.296 946.658 347.296C945.845 347.296 945.172 347.549 944.639 348.054C944.12 348.544 943.861 349.203 943.861 350.031ZM899.342 390.1V392.35H897.659V395.001H895.219V392.35H887.983V390.1L893.053 380.277H895.682L890.613 390.1H895.219V386.272H897.659V390.1H899.342ZM905.485 385.83C906.887 385.83 908.072 386.251 909.04 387.092C910.007 387.919 910.491 389.069 910.491 390.542C910.491 392.014 909.993 393.171 908.998 394.012C908.002 394.853 906.782 395.274 905.338 395.274C904.174 395.274 903.143 395.008 902.246 394.475C901.349 393.928 900.711 393.143 900.332 392.119L902.414 390.92C902.807 392.252 903.781 392.918 905.338 392.918C906.165 392.918 906.824 392.708 907.315 392.287C907.82 391.853 908.072 391.271 908.072 390.542C908.072 389.812 907.827 389.237 907.336 388.817C906.845 388.396 906.193 388.186 905.38 388.186H901.089L901.657 380.277H909.86V382.549H903.887L903.634 385.83H905.485ZM914.559 394.79C914.25 395.099 913.879 395.253 913.444 395.253C913.009 395.253 912.638 395.099 912.329 394.79C912.021 394.482 911.867 394.11 911.867 393.676C911.867 393.241 912.014 392.869 912.308 392.561C912.617 392.252 912.995 392.098 913.444 392.098C913.879 392.098 914.25 392.252 914.559 392.561C914.867 392.869 915.022 393.241 915.022 393.676C915.022 394.11 914.867 394.482 914.559 394.79ZM927.955 390.1V392.35H926.272V395.001H923.832V392.35H916.597V390.1L921.666 380.277H924.295L919.226 390.1H923.832V386.272H926.272V390.1H927.955ZM945.625 384.484V395.001H943.417V388.081L940.388 392.897H940.114L937.106 388.102V395.001H934.898V384.484H937.212L940.261 389.343L943.311 384.484H945.625ZM947.471 385.325V383.979L950.773 380.803C951.292 380.312 951.552 379.828 951.552 379.352C951.552 379.071 951.454 378.847 951.257 378.679C951.061 378.51 950.794 378.426 950.458 378.426C949.785 378.426 949.294 378.805 948.986 379.562L947.408 378.679C947.674 378.047 948.067 377.55 948.586 377.185C949.105 376.821 949.736 376.638 950.479 376.638C951.362 376.638 952.085 376.884 952.645 377.374C953.206 377.865 953.487 378.489 953.487 379.246C953.487 380.158 953.024 381.055 952.099 381.939L950.374 383.537H953.634V385.325H947.471Z" fill="black"/>
<path d="M892 369L952 369" stroke="black" stroke-width="3"/>
<path d="M1078.88 351.734C1077.9 351.734 1077.08 351.412 1076.42 350.767C1075.77 350.108 1075.45 349.309 1075.45 348.369C1075.45 347.43 1075.77 346.637 1076.42 345.992C1077.08 345.333 1077.9 345.004 1078.88 345.004C1079.86 345.004 1080.67 345.333 1081.32 345.992C1081.98 346.637 1082.31 347.43 1082.31 348.369C1082.31 349.309 1081.98 350.108 1081.34 350.767C1080.69 351.412 1079.87 351.734 1078.88 351.734ZM1071.66 345.277H1074.08V360.001H1072.19L1065.25 350.01V360.001H1062.83V345.277H1064.72L1071.66 355.268V345.277ZM1078.88 349.841C1079.31 349.841 1079.66 349.701 1079.93 349.421C1080.2 349.14 1080.33 348.79 1080.33 348.369C1080.33 347.948 1080.19 347.598 1079.91 347.317C1079.64 347.037 1079.3 346.897 1078.88 346.897C1078.46 346.897 1078.11 347.037 1077.83 347.317C1077.56 347.598 1077.43 347.948 1077.43 348.369C1077.43 348.79 1077.56 349.14 1077.83 349.421C1078.11 349.701 1078.46 349.841 1078.88 349.841ZM1075.72 355.142V352.996H1082.08V355.142H1075.72ZM1094.09 350.83C1095.49 350.83 1096.68 351.251 1097.65 352.092C1098.61 352.919 1099.1 354.069 1099.1 355.542C1099.1 357.014 1098.6 358.171 1097.6 359.012C1096.61 359.853 1095.39 360.274 1093.94 360.274C1092.78 360.274 1091.75 360.008 1090.85 359.475C1089.95 358.928 1089.32 358.143 1088.94 357.119L1091.02 355.92C1091.41 357.252 1092.39 357.918 1093.94 357.918C1094.77 357.918 1095.43 357.708 1095.92 357.287C1096.43 356.853 1096.68 356.271 1096.68 355.542C1096.68 354.812 1096.43 354.237 1095.94 353.817C1095.45 353.396 1094.8 353.186 1093.99 353.186H1089.69L1090.26 345.277H1098.47V347.549H1092.49L1092.24 350.83H1094.09ZM1110.48 358.192C1109.47 359.58 1108.05 360.274 1106.23 360.274C1104.41 360.274 1102.98 359.58 1101.96 358.192C1100.95 356.804 1100.45 354.953 1100.45 352.639C1100.45 350.325 1100.95 348.474 1101.96 347.086C1102.98 345.698 1104.41 345.004 1106.23 345.004C1108.05 345.004 1109.47 345.698 1110.48 347.086C1111.5 348.474 1112.01 350.325 1112.01 352.639C1112.01 354.953 1111.5 356.804 1110.48 358.192ZM1106.23 357.918C1107.32 357.918 1108.16 357.463 1108.73 356.551C1109.31 355.64 1109.59 354.336 1109.59 352.639C1109.59 350.942 1109.31 349.638 1108.73 348.727C1108.16 347.815 1107.32 347.359 1106.23 347.359C1105.15 347.359 1104.32 347.815 1103.73 348.727C1103.15 349.638 1102.86 350.942 1102.86 352.639C1102.86 354.336 1103.15 355.64 1103.73 356.551C1104.32 357.463 1105.15 357.918 1106.23 357.918ZM1121.75 352.344C1123.19 353.144 1123.92 354.336 1123.92 355.92C1123.92 357.266 1123.45 358.332 1122.51 359.117C1121.57 359.889 1120.32 360.274 1118.76 360.274C1117.21 360.274 1115.95 359.889 1115 359.117C1114.06 358.332 1113.59 357.266 1113.59 355.92C1113.59 355.163 1113.78 354.476 1114.16 353.859C1114.54 353.228 1115.07 352.723 1115.76 352.344C1114.65 351.615 1114.09 350.578 1114.09 349.231C1114.09 347.885 1114.54 346.848 1115.44 346.118C1116.34 345.375 1117.45 345.004 1118.76 345.004C1120.07 345.004 1121.17 345.375 1122.07 346.118C1122.98 346.848 1123.43 347.885 1123.43 349.231C1123.43 350.578 1122.87 351.615 1121.75 352.344ZM1118.76 347.296C1118.1 347.296 1117.56 347.472 1117.14 347.822C1116.72 348.173 1116.51 348.678 1116.51 349.337C1116.51 349.968 1116.72 350.465 1117.14 350.83C1117.58 351.195 1118.12 351.377 1118.76 351.377C1119.39 351.377 1119.93 351.195 1120.36 350.83C1120.8 350.465 1121.01 349.968 1121.01 349.337C1121.01 348.678 1120.8 348.173 1120.36 347.822C1119.94 347.472 1119.41 347.296 1118.76 347.296ZM1118.76 357.981C1119.58 357.981 1120.24 357.785 1120.74 357.393C1121.25 356.986 1121.5 356.418 1121.5 355.689C1121.5 354.96 1121.25 354.399 1120.74 354.006C1120.24 353.599 1119.58 353.396 1118.76 353.396C1117.94 353.396 1117.27 353.599 1116.76 354.006C1116.26 354.399 1116.01 354.96 1116.01 355.689C1116.01 356.418 1116.26 356.986 1116.76 357.393C1117.27 357.785 1117.94 357.981 1118.76 357.981ZM1069.18 390.1V392.35H1067.5V395.001H1065.06V392.35H1057.82V390.1L1062.89 380.277H1065.52L1060.45 390.1H1065.06V386.272H1067.5V390.1H1069.18ZM1075.33 385.83C1076.73 385.83 1077.91 386.251 1078.88 387.092C1079.85 387.919 1080.33 389.069 1080.33 390.542C1080.33 392.014 1079.83 393.171 1078.84 394.012C1077.84 394.853 1076.62 395.274 1075.18 395.274C1074.02 395.274 1072.98 395.008 1072.09 394.475C1071.19 393.928 1070.55 393.143 1070.17 392.119L1072.26 390.92C1072.65 392.252 1073.62 392.918 1075.18 392.918C1076.01 392.918 1076.67 392.708 1077.16 392.287C1077.66 391.853 1077.91 391.271 1077.91 390.542C1077.91 389.812 1077.67 389.237 1077.18 388.817C1076.69 388.396 1076.03 388.186 1075.22 388.186H1070.93L1071.5 380.277H1079.7V382.549H1073.73L1073.48 385.83H1075.33ZM1084.4 394.79C1084.09 395.099 1083.72 395.253 1083.29 395.253C1082.85 395.253 1082.48 395.099 1082.17 394.79C1081.86 394.482 1081.71 394.11 1081.71 393.676C1081.71 393.241 1081.86 392.869 1082.15 392.561C1082.46 392.252 1082.84 392.098 1083.29 392.098C1083.72 392.098 1084.09 392.252 1084.4 392.561C1084.71 392.869 1084.86 393.241 1084.86 393.676C1084.86 394.11 1084.71 394.482 1084.4 394.79ZM1091.74 385.83C1093.14 385.83 1094.33 386.251 1095.29 387.092C1096.26 387.919 1096.74 389.069 1096.74 390.542C1096.74 392.014 1096.25 393.171 1095.25 394.012C1094.26 394.853 1093.04 395.274 1091.59 395.274C1090.43 395.274 1089.4 395.008 1088.5 394.475C1087.6 393.928 1086.96 393.143 1086.59 392.119L1088.67 390.92C1089.06 392.252 1090.04 392.918 1091.59 392.918C1092.42 392.918 1093.08 392.708 1093.57 392.287C1094.07 391.853 1094.33 391.271 1094.33 390.542C1094.33 389.812 1094.08 389.237 1093.59 388.817C1093.1 388.396 1092.45 388.186 1091.63 388.186H1087.34L1087.91 380.277H1096.11V382.549H1090.14L1089.89 385.83H1091.74ZM1119.99 384.484V395.001H1117.78V388.081L1114.75 392.897H1114.47L1111.47 388.102V395.001H1109.26V384.484H1111.57L1114.62 389.343L1117.67 384.484H1119.99ZM1121.83 385.325V383.979L1125.13 380.803C1125.65 380.312 1125.91 379.828 1125.91 379.352C1125.91 379.071 1125.81 378.847 1125.62 378.679C1125.42 378.51 1125.15 378.426 1124.82 378.426C1124.15 378.426 1123.65 378.805 1123.35 379.562L1121.77 378.679C1122.03 378.047 1122.43 377.55 1122.95 377.185C1123.47 376.821 1124.1 376.638 1124.84 376.638C1125.72 376.638 1126.44 376.884 1127.01 377.374C1127.57 377.865 1127.85 378.489 1127.85 379.246C1127.85 380.158 1127.38 381.055 1126.46 381.939L1124.73 383.537H1127.99V385.325H1121.83Z" fill="black"/>
<path d="M1056 369.001H1130" stroke="black" stroke-width="3"/>
<path d="M1250.77 351.734C1249.79 351.734 1248.97 351.412 1248.31 350.767C1247.67 350.108 1247.34 349.309 1247.34 348.369C1247.34 347.43 1247.67 346.637 1248.31 345.992C1248.97 345.333 1249.79 345.004 1250.77 345.004C1251.75 345.004 1252.57 345.333 1253.21 345.992C1253.87 346.637 1254.2 347.43 1254.2 348.369C1254.2 349.309 1253.88 350.108 1253.23 350.767C1252.59 351.412 1251.77 351.734 1250.77 351.734ZM1243.56 345.277H1245.98V360.001H1244.08L1237.14 350.01V360.001H1234.72V345.277H1236.62L1243.56 355.268V345.277ZM1250.77 349.841C1251.21 349.841 1251.56 349.701 1251.82 349.421C1252.09 349.14 1252.22 348.79 1252.22 348.369C1252.22 347.948 1252.08 347.598 1251.8 347.317C1251.54 347.037 1251.19 346.897 1250.77 346.897C1250.35 346.897 1250 347.037 1249.72 347.317C1249.45 347.598 1249.32 347.948 1249.32 348.369C1249.32 348.79 1249.45 349.14 1249.72 349.421C1250 349.701 1250.35 349.841 1250.77 349.841ZM1247.62 355.142V352.996H1253.97V355.142H1247.62ZM1265.98 350.83C1267.39 350.83 1268.57 351.251 1269.54 352.092C1270.51 352.919 1270.99 354.069 1270.99 355.542C1270.99 357.014 1270.49 358.171 1269.5 359.012C1268.5 359.853 1267.28 360.274 1265.84 360.274C1264.67 360.274 1263.64 360.008 1262.74 359.475C1261.85 358.928 1261.21 358.143 1260.83 357.119L1262.91 355.92C1263.31 357.252 1264.28 357.918 1265.84 357.918C1266.66 357.918 1267.32 357.708 1267.81 357.287C1268.32 356.853 1268.57 356.271 1268.57 355.542C1268.57 354.812 1268.33 354.237 1267.83 353.817C1267.34 353.396 1266.69 353.186 1265.88 353.186H1261.59L1262.16 345.277H1270.36V347.549H1264.39L1264.13 350.83H1265.98ZM1282.37 358.192C1281.36 359.58 1279.95 360.274 1278.12 360.274C1276.3 360.274 1274.88 359.58 1273.85 358.192C1272.84 356.804 1272.34 354.953 1272.34 352.639C1272.34 350.325 1272.84 348.474 1273.85 347.086C1274.88 345.698 1276.3 345.004 1278.12 345.004C1279.95 345.004 1281.36 345.698 1282.37 347.086C1283.4 348.474 1283.91 350.325 1283.91 352.639C1283.91 354.953 1283.4 356.804 1282.37 358.192ZM1278.12 357.918C1279.22 357.918 1280.05 357.463 1280.63 356.551C1281.2 355.64 1281.49 354.336 1281.49 352.639C1281.49 350.942 1281.2 349.638 1280.63 348.727C1280.05 347.815 1279.22 347.359 1278.12 347.359C1277.04 347.359 1276.21 347.815 1275.62 348.727C1275.04 349.638 1274.76 350.942 1274.76 352.639C1274.76 354.336 1275.04 355.64 1275.62 356.551C1276.21 357.463 1277.04 357.918 1278.12 357.918ZM1284.65 345.277H1294.01V347.38L1288.84 360.001H1286.29L1291.38 347.591H1284.65V345.277ZM1238.84 385.83C1240.24 385.83 1241.43 386.251 1242.39 387.092C1243.36 387.919 1243.85 389.069 1243.85 390.542C1243.85 392.014 1243.35 393.171 1242.35 394.012C1241.36 394.853 1240.14 395.274 1238.69 395.274C1237.53 395.274 1236.5 395.008 1235.6 394.475C1234.7 393.928 1234.06 393.143 1233.69 392.119L1235.77 390.92C1236.16 392.252 1237.14 392.918 1238.69 392.918C1239.52 392.918 1240.18 392.708 1240.67 392.287C1241.17 391.853 1241.43 391.271 1241.43 390.542C1241.43 389.812 1241.18 389.237 1240.69 388.817C1240.2 388.396 1239.55 388.186 1238.73 388.186H1234.44L1235.01 380.277H1243.21V382.549H1237.24L1236.99 385.83H1238.84ZM1248.35 380.277H1250.46V395.001H1248.04V382.864L1245.07 383.706L1244.48 381.644L1248.35 380.277ZM1255.84 394.79C1255.53 395.099 1255.16 395.253 1254.73 395.253C1254.29 395.253 1253.92 395.099 1253.61 394.79C1253.3 394.482 1253.15 394.11 1253.15 393.676C1253.15 393.241 1253.3 392.869 1253.59 392.561C1253.9 392.252 1254.28 392.098 1254.73 392.098C1255.16 392.098 1255.53 392.252 1255.84 392.561C1256.15 392.869 1256.3 393.241 1256.3 393.676C1256.3 394.11 1256.15 394.482 1255.84 394.79ZM1263.18 385.83C1264.58 385.83 1265.77 386.251 1266.73 387.092C1267.7 387.919 1268.19 389.069 1268.19 390.542C1268.19 392.014 1267.69 393.171 1266.69 394.012C1265.7 394.853 1264.48 395.274 1263.03 395.274C1261.87 395.274 1260.84 395.008 1259.94 394.475C1259.04 393.928 1258.41 393.143 1258.03 392.119L1260.11 390.92C1260.5 392.252 1261.48 392.918 1263.03 392.918C1263.86 392.918 1264.52 392.708 1265.01 392.287C1265.51 391.853 1265.77 391.271 1265.77 390.542C1265.77 389.812 1265.52 389.237 1265.03 388.817C1264.54 388.396 1263.89 388.186 1263.07 388.186H1258.78L1259.35 380.277H1267.56V382.549H1261.58L1261.33 385.83H1263.18ZM1286.17 384.484V395.001H1283.96V388.081L1280.93 392.897H1280.66L1277.65 388.102V395.001H1275.44V384.484H1277.75L1280.8 389.343L1283.85 384.484H1286.17ZM1288.01 385.325V383.979L1291.32 380.803C1291.84 380.312 1292.09 379.828 1292.09 379.352C1292.09 379.071 1292 378.847 1291.8 378.679C1291.6 378.51 1291.34 378.426 1291 378.426C1290.33 378.426 1289.84 378.805 1289.53 379.562L1287.95 378.679C1288.22 378.047 1288.61 377.55 1289.13 377.185C1289.65 376.821 1290.28 376.638 1291.02 376.638C1291.91 376.638 1292.63 376.884 1293.19 377.374C1293.75 377.865 1294.03 378.489 1294.03 379.246C1294.03 380.158 1293.57 381.055 1292.64 381.939L1290.92 383.537H1294.18V385.325H1288.01Z" fill="black"/>
<path d="M1233 368.889L1293 368.889" stroke="black" stroke-width="3"/>
<path d="M1254.68 94.7345C1253.7 94.7345 1252.88 94.4119 1252.22 93.7669C1251.58 93.1078 1251.25 92.3086 1251.25 91.369C1251.25 90.4295 1251.58 89.6373 1252.22 88.9922C1252.88 88.3332 1253.7 88.0036 1254.68 88.0036C1255.66 88.0036 1256.48 88.3332 1257.12 88.9922C1257.78 89.6373 1258.11 90.4295 1258.11 91.369C1258.11 92.3086 1257.79 93.1078 1257.14 93.7669C1256.5 94.4119 1255.68 94.7345 1254.68 94.7345ZM1247.47 88.2771H1249.89V103.001H1247.99L1241.05 93.0097V103.001H1238.63V88.2771H1240.53L1247.47 98.2681V88.2771ZM1254.68 92.8414C1255.12 92.8414 1255.47 92.7012 1255.73 92.4207C1256 92.1403 1256.13 91.7897 1256.13 91.369C1256.13 90.9484 1255.99 90.5978 1255.71 90.3174C1255.45 90.0369 1255.1 89.8967 1254.68 89.8967C1254.26 89.8967 1253.91 90.0369 1253.63 90.3174C1253.36 90.5978 1253.23 90.9484 1253.23 91.369C1253.23 91.7897 1253.36 92.1403 1253.63 92.4207C1253.91 92.7012 1254.26 92.8414 1254.68 92.8414ZM1251.53 98.1419V95.9965H1257.88V98.1419H1251.53ZM1269.9 93.83C1271.3 93.83 1272.48 94.2507 1273.45 95.092C1274.42 95.9194 1274.9 97.0692 1274.9 98.5416C1274.9 100.014 1274.4 101.171 1273.41 102.012C1272.41 102.853 1271.19 103.274 1269.75 103.274C1268.58 103.274 1267.55 103.008 1266.66 102.475C1265.76 101.928 1265.12 101.143 1264.74 100.119L1266.82 98.9202C1267.22 100.252 1268.19 100.918 1269.75 100.918C1270.58 100.918 1271.23 100.708 1271.73 100.287C1272.23 99.8527 1272.48 99.2707 1272.48 98.5416C1272.48 97.8124 1272.24 97.2375 1271.75 96.8168C1271.26 96.3961 1270.6 96.1858 1269.79 96.1858H1265.5L1266.07 88.2771H1274.27V90.5487H1268.3L1268.04 93.83H1269.9ZM1286.28 101.192C1285.27 102.58 1283.86 103.274 1282.03 103.274C1280.21 103.274 1278.79 102.58 1277.76 101.192C1276.75 99.8036 1276.25 97.9526 1276.25 95.6389C1276.25 93.3252 1276.75 91.4742 1277.76 90.086C1278.79 88.6978 1280.21 88.0036 1282.03 88.0036C1283.86 88.0036 1285.27 88.6978 1286.28 90.086C1287.31 91.4742 1287.82 93.3252 1287.82 95.6389C1287.82 97.9526 1287.31 99.8036 1286.28 101.192ZM1282.03 100.918C1283.13 100.918 1283.96 100.463 1284.54 99.5512C1285.11 98.6397 1285.4 97.3356 1285.4 95.6389C1285.4 93.9422 1285.11 92.6381 1284.54 91.7266C1283.96 90.8152 1283.13 90.3594 1282.03 90.3594C1280.95 90.3594 1280.12 90.8152 1279.53 91.7266C1278.96 92.6381 1278.67 93.9422 1278.67 95.6389C1278.67 97.3356 1278.96 98.6397 1279.53 99.5512C1280.12 100.463 1280.95 100.918 1282.03 100.918ZM1294.4 93.22C1295.93 93.22 1297.18 93.6898 1298.14 94.6293C1299.11 95.5548 1299.6 96.7607 1299.6 98.2471C1299.6 99.7335 1299.11 100.946 1298.14 101.886C1297.18 102.811 1295.93 103.274 1294.4 103.274C1292.86 103.274 1291.6 102.811 1290.63 101.886C1289.67 100.946 1289.18 99.7335 1289.18 98.2471C1289.18 97.1253 1289.48 96.1367 1290.07 95.2813L1294.74 88.2771H1297.49L1294.13 93.22H1294.4ZM1294.4 100.981C1295.21 100.981 1295.88 100.736 1296.4 100.245C1296.92 99.7405 1297.18 99.0744 1297.18 98.2471C1297.18 97.4198 1296.92 96.7607 1296.4 96.2699C1295.88 95.7651 1295.21 95.5127 1294.4 95.5127C1293.57 95.5127 1292.9 95.7651 1292.38 96.2699C1291.86 96.7607 1291.6 97.4198 1291.6 98.2471C1291.6 99.0744 1291.86 99.7405 1292.38 100.245C1292.9 100.736 1293.57 100.981 1294.4 100.981ZM1249.66 133.1V135.35H1247.98V138.001H1245.54V135.35H1238.3V133.1L1243.37 123.277H1246L1240.93 133.1H1245.54V129.272H1247.98V133.1H1249.66ZM1249.93 123.277H1259.29V125.38L1254.11 138.001H1251.57L1256.66 125.591H1249.93V123.277ZM1260.56 137.79C1260.26 138.099 1259.88 138.253 1259.45 138.253C1259.02 138.253 1258.64 138.099 1258.34 137.79C1258.03 137.482 1257.87 137.11 1257.87 136.676C1257.87 136.241 1258.02 135.869 1258.31 135.561C1258.62 135.252 1259 135.098 1259.45 135.098C1259.88 135.098 1260.26 135.252 1260.56 135.561C1260.87 135.869 1261.03 136.241 1261.03 136.676C1261.03 137.11 1260.87 137.482 1260.56 137.79ZM1269.14 129.293C1270.21 129.545 1271.07 130.043 1271.73 130.786C1272.4 131.515 1272.74 132.434 1272.74 133.542C1272.74 135.014 1272.24 136.171 1271.25 137.012C1270.25 137.853 1269.03 138.274 1267.59 138.274C1266.47 138.274 1265.46 138.015 1264.56 137.496C1263.68 136.977 1263.04 136.22 1262.64 135.224L1264.71 134.025C1265.14 135.287 1266.1 135.918 1267.59 135.918C1268.43 135.918 1269.1 135.708 1269.59 135.287C1270.08 134.853 1270.32 134.271 1270.32 133.542C1270.32 132.812 1270.08 132.237 1269.59 131.817C1269.1 131.396 1268.43 131.186 1267.59 131.186H1267.04L1266.07 129.734L1269.25 125.549H1263.09V123.277H1272.13V125.338L1269.14 129.293ZM1290.79 127.484V138.001H1288.58V131.081L1285.55 135.897H1285.28L1282.27 131.102V138.001H1280.06V127.484H1282.38L1285.43 132.343L1288.48 127.484H1290.79ZM1292.63 128.325V126.979L1295.94 123.803C1296.46 123.312 1296.72 122.828 1296.72 122.352C1296.72 122.071 1296.62 121.847 1296.42 121.679C1296.22 121.51 1295.96 121.426 1295.62 121.426C1294.95 121.426 1294.46 121.805 1294.15 122.562L1292.57 121.679C1292.84 121.047 1293.23 120.55 1293.75 120.185C1294.27 119.821 1294.9 119.638 1295.64 119.638C1296.53 119.638 1297.25 119.884 1297.81 120.374C1298.37 120.865 1298.65 121.489 1298.65 122.246C1298.65 123.158 1298.19 124.055 1297.26 124.939L1295.54 126.537H1298.8V128.325H1292.63Z" fill="black"/>
<path d="M1240.01 111.888L1297.27 111.888" stroke="black" stroke-width="3"/>
<path d="M610.942 90.7345C609.96 90.7345 609.14 90.4119 608.481 89.7669C607.836 89.1078 607.513 88.3086 607.513 87.369C607.513 86.4295 607.836 85.6373 608.481 84.9922C609.14 84.3332 609.96 84.0036 610.942 84.0036C611.923 84.0036 612.737 84.3332 613.382 84.9922C614.041 85.6373 614.37 86.4295 614.37 87.369C614.37 88.3086 614.048 89.1078 613.403 89.7669C612.758 90.4119 611.937 90.7345 610.942 90.7345ZM603.727 84.2771H606.146V99.0007H604.253L597.312 89.0097V99.0007H594.893V84.2771H596.786L603.727 94.2681V84.2771ZM610.942 88.8414C611.376 88.8414 611.727 88.7012 611.993 88.4207C612.26 88.1403 612.393 87.7897 612.393 87.369C612.393 86.9484 612.253 86.5978 611.972 86.3174C611.706 86.0369 611.362 85.8967 610.942 85.8967C610.521 85.8967 610.17 86.0369 609.89 86.3174C609.624 86.5978 609.49 86.9484 609.49 87.369C609.49 87.7897 609.624 88.1403 609.89 88.4207C610.17 88.7012 610.521 88.8414 610.942 88.8414ZM607.787 94.1419V91.9965H614.139V94.1419H607.787ZM626.154 89.83C627.557 89.83 628.742 90.2507 629.709 91.092C630.677 91.9194 631.16 93.0692 631.16 94.5416C631.16 96.0139 630.663 97.1708 629.667 98.0121C628.671 98.8535 627.452 99.2742 626.007 99.2742C624.843 99.2742 623.813 99.0077 622.915 98.4749C622.018 97.928 621.38 97.1427 621.001 96.1191L623.083 94.9202C623.476 96.2523 624.451 96.9184 626.007 96.9184C626.835 96.9184 627.494 96.708 627.984 96.2874C628.489 95.8527 628.742 95.2707 628.742 94.5416C628.742 93.8124 628.496 93.2375 628.005 92.8168C627.515 92.3961 626.863 92.1858 626.049 92.1858H621.758L622.326 84.2771H630.529V86.5487H624.556L624.303 89.83H626.154ZM642.542 97.1918C641.532 98.5801 640.116 99.2742 638.293 99.2742C636.47 99.2742 635.047 98.5801 634.023 97.1918C633.014 95.8036 632.509 93.9526 632.509 91.6389C632.509 89.3252 633.014 87.4742 634.023 86.086C635.047 84.6978 636.47 84.0036 638.293 84.0036C640.116 84.0036 641.532 84.6978 642.542 86.086C643.566 87.4742 644.078 89.3252 644.078 91.6389C644.078 93.9526 643.566 95.8036 642.542 97.1918ZM638.293 96.9184C639.387 96.9184 640.221 96.4627 640.796 95.5512C641.371 94.6397 641.659 93.3356 641.659 91.6389C641.659 89.9422 641.371 88.6381 640.796 87.7266C640.221 86.8152 639.387 86.3594 638.293 86.3594C637.213 86.3594 636.379 86.8152 635.79 87.7266C635.215 88.6381 634.928 89.9422 634.928 91.6389C634.928 93.3356 635.215 94.6397 635.79 95.5512C636.379 96.4627 637.213 96.9184 638.293 96.9184ZM645.26 99.0007V97.1077L650.393 91.8703C651.641 90.6223 652.265 89.5425 652.265 88.6311C652.265 87.9159 652.047 87.362 651.613 86.9694C651.192 86.5628 650.652 86.3594 649.993 86.3594C648.759 86.3594 647.847 86.9694 647.259 88.1894L645.218 86.9904C645.681 86.0089 646.333 85.2657 647.174 84.7609C648.016 84.256 648.948 84.0036 649.972 84.0036C651.262 84.0036 652.37 84.4103 653.295 85.2236C654.221 86.0369 654.683 87.1447 654.683 88.5469C654.683 90.0473 653.849 91.6459 652.18 93.3426L648.857 96.666H654.957V99.0007H645.26ZM664.985 88.4838H667.257V99.0007H664.985V97.4863C664.13 98.6782 662.903 99.2742 661.304 99.2742C659.86 99.2742 658.626 98.7413 657.602 97.6756C656.579 96.5959 656.067 95.2848 656.067 93.7423C656.067 92.1858 656.579 90.8747 657.602 89.809C658.626 88.7433 659.86 88.2104 661.304 88.2104C662.903 88.2104 664.13 88.7993 664.985 89.9772V88.4838ZM659.285 96.1612C659.916 96.7922 660.708 97.1077 661.662 97.1077C662.615 97.1077 663.408 96.7922 664.039 96.1612C664.67 95.5161 664.985 94.7098 664.985 93.7423C664.985 92.7747 664.67 91.9754 664.039 91.3444C663.408 90.6994 662.615 90.3769 661.662 90.3769C660.708 90.3769 659.916 90.6994 659.285 91.3444C658.654 91.9754 658.338 92.7747 658.338 93.7423C658.338 94.7098 658.654 95.5161 659.285 96.1612ZM600.502 134.001V132.108L605.634 126.87C606.882 125.622 607.506 124.543 607.506 123.631C607.506 122.916 607.289 122.362 606.854 121.969C606.433 121.563 605.894 121.359 605.235 121.359C604.001 121.359 603.089 121.969 602.5 123.189L600.46 121.99C600.923 121.009 601.575 120.266 602.416 119.761C603.257 119.256 604.19 119.004 605.213 119.004C606.504 119.004 607.611 119.41 608.537 120.224C609.462 121.037 609.925 122.145 609.925 123.547C609.925 125.047 609.091 126.646 607.422 128.343L604.099 131.666H610.198V134.001H600.502ZM614.921 119.277H617.025V134.001H614.606V121.864L611.64 122.706L611.051 120.644L614.921 119.277ZM622.411 133.79C622.102 134.099 621.731 134.253 621.296 134.253C620.861 134.253 620.49 134.099 620.181 133.79C619.873 133.482 619.718 133.11 619.718 132.676C619.718 132.241 619.866 131.869 620.16 131.561C620.469 131.252 620.847 131.098 621.296 131.098C621.731 131.098 622.102 131.252 622.411 131.561C622.719 131.869 622.873 132.241 622.873 132.676C622.873 133.11 622.719 133.482 622.411 133.79ZM635.807 129.1V131.35H634.124V134.001H631.684V131.35H624.449V129.1L629.518 119.277H632.147L627.078 129.1H631.684V125.272H634.124V129.1H635.807ZM653.477 123.484V134.001H651.268V127.081L648.239 131.897H647.966L644.958 127.102V134.001H642.75V123.484H645.063L648.113 128.343L651.163 123.484H653.477ZM655.323 124.325V122.979L658.625 119.803C659.144 119.312 659.403 118.828 659.403 118.352C659.403 118.071 659.305 117.847 659.109 117.679C658.913 117.51 658.646 117.426 658.31 117.426C657.637 117.426 657.146 117.805 656.837 118.562L655.26 117.679C655.526 117.047 655.919 116.55 656.438 116.185C656.956 115.821 657.588 115.638 658.331 115.638C659.214 115.638 659.936 115.884 660.497 116.374C661.058 116.865 661.339 117.489 661.339 118.246C661.339 119.158 660.876 120.055 659.95 120.939L658.226 122.537H661.486V124.325H655.323Z" fill="#181818"/>
<path d="M592 108.001H669" stroke="#181818" stroke-width="2.33709"/>
<path d="M741.861 90.7345C740.879 90.7345 740.059 90.4119 739.4 89.7669C738.755 89.1078 738.432 88.3086 738.432 87.369C738.432 86.4295 738.755 85.6373 739.4 84.9922C740.059 84.3332 740.879 84.0036 741.861 84.0036C742.842 84.0036 743.656 84.3332 744.301 84.9922C744.96 85.6373 745.289 86.4295 745.289 87.369C745.289 88.3086 744.967 89.1078 744.322 89.7669C743.677 90.4119 742.856 90.7345 741.861 90.7345ZM734.646 84.2771H737.065V99.0007H735.172L728.231 89.0097V99.0007H725.812V84.2771H727.705L734.646 94.2681V84.2771ZM741.861 88.8414C742.295 88.8414 742.646 88.7012 742.912 88.4207C743.179 88.1403 743.312 87.7897 743.312 87.369C743.312 86.9484 743.172 86.5978 742.891 86.3174C742.625 86.0369 742.281 85.8967 741.861 85.8967C741.44 85.8967 741.089 86.0369 740.809 86.3174C740.543 86.5978 740.409 86.9484 740.409 87.369C740.409 87.7897 740.543 88.1403 740.809 88.4207C741.089 88.7012 741.44 88.8414 741.861 88.8414ZM738.706 94.1419V91.9965H745.058V94.1419H738.706ZM757.073 89.83C758.476 89.83 759.661 90.2507 760.628 91.092C761.596 91.9194 762.079 93.0692 762.079 94.5416C762.079 96.0139 761.582 97.1708 760.586 98.0121C759.59 98.8535 758.371 99.2742 756.926 99.2742C755.762 99.2742 754.732 99.0077 753.834 98.4749C752.937 97.928 752.299 97.1427 751.92 96.1191L754.002 94.9202C754.395 96.2523 755.37 96.9184 756.926 96.9184C757.754 96.9184 758.413 96.708 758.903 96.2874C759.408 95.8527 759.661 95.2707 759.661 94.5416C759.661 93.8124 759.415 93.2375 758.924 92.8168C758.434 92.3961 757.782 92.1858 756.968 92.1858H752.677L753.245 84.2771H761.448V86.5487H755.475L755.222 89.83H757.073ZM773.461 97.1918C772.451 98.5801 771.035 99.2742 769.212 99.2742C767.389 99.2742 765.966 98.5801 764.942 97.1918C763.933 95.8036 763.428 93.9526 763.428 91.6389C763.428 89.3252 763.933 87.4742 764.942 86.086C765.966 84.6978 767.389 84.0036 769.212 84.0036C771.035 84.0036 772.451 84.6978 773.461 86.086C774.485 87.4742 774.997 89.3252 774.997 91.6389C774.997 93.9526 774.485 95.8036 773.461 97.1918ZM769.212 96.9184C770.306 96.9184 771.14 96.4627 771.715 95.5512C772.29 94.6397 772.578 93.3356 772.578 91.6389C772.578 89.9422 772.29 88.6381 771.715 87.7266C771.14 86.8152 770.306 86.3594 769.212 86.3594C768.132 86.3594 767.298 86.8152 766.709 87.7266C766.134 88.6381 765.847 89.9422 765.847 91.6389C765.847 93.3356 766.134 94.6397 766.709 95.5512C767.298 96.4627 768.132 96.9184 769.212 96.9184ZM782.327 90.2927C783.392 90.5451 784.255 91.0429 784.914 91.7861C785.587 92.5153 785.923 93.4338 785.923 94.5416C785.923 96.0139 785.426 97.1708 784.43 98.0121C783.434 98.8535 782.214 99.2742 780.77 99.2742C779.648 99.2742 778.639 99.0148 777.741 98.4959C776.858 97.9771 776.22 97.2199 775.827 96.2243L777.888 95.0253C778.323 96.2874 779.284 96.9184 780.77 96.9184C781.611 96.9184 782.278 96.708 782.768 96.2874C783.259 95.8527 783.505 95.2707 783.505 94.5416C783.505 93.8124 783.259 93.2375 782.768 92.8168C782.278 92.3961 781.611 92.1858 780.77 92.1858H780.223L779.256 90.7345L782.432 86.5487H776.269V84.2771H785.313V86.3384L782.327 90.2927ZM736.243 129.1V131.35H734.561V134.001H732.121V131.35H724.885V129.1L729.954 119.277H732.583L727.514 129.1H732.121V125.272H734.561V129.1H736.243ZM740.212 119.277H742.315V134.001H739.897V121.864L736.931 122.706L736.342 120.644L740.212 119.277ZM747.702 133.79C747.393 134.099 747.021 134.253 746.587 134.253C746.152 134.253 745.78 134.099 745.472 133.79C745.163 133.482 745.009 133.11 745.009 132.676C745.009 132.241 745.156 131.869 745.451 131.561C745.759 131.252 746.138 131.098 746.587 131.098C747.021 131.098 747.393 131.252 747.702 131.561C748.01 131.869 748.164 132.241 748.164 132.676C748.164 133.11 748.01 133.482 747.702 133.79ZM756.281 125.293C757.347 125.545 758.209 126.043 758.868 126.786C759.541 127.515 759.878 128.434 759.878 129.542C759.878 131.014 759.38 132.171 758.384 133.012C757.389 133.853 756.169 134.274 754.724 134.274C753.603 134.274 752.593 134.015 751.696 133.496C750.812 132.977 750.174 132.22 749.781 131.224L751.843 130.025C752.277 131.287 753.238 131.918 754.724 131.918C755.566 131.918 756.232 131.708 756.723 131.287C757.213 130.853 757.459 130.271 757.459 129.542C757.459 128.812 757.213 128.237 756.723 127.817C756.232 127.396 755.566 127.186 754.724 127.186H754.177L753.21 125.734L756.386 121.549H750.223V119.277H759.268V121.338L756.281 125.293ZM777.925 123.484V134.001H775.717V127.081L772.688 131.897H772.415L769.407 127.102V134.001H767.198V123.484H769.512L772.562 128.343L775.612 123.484H777.925ZM779.772 124.325V122.979L783.074 119.803C783.593 119.312 783.852 118.828 783.852 118.352C783.852 118.071 783.754 117.847 783.558 117.679C783.361 117.51 783.095 117.426 782.758 117.426C782.085 117.426 781.594 117.805 781.286 118.562L779.708 117.679C779.975 117.047 780.367 116.55 780.886 116.185C781.405 115.821 782.036 115.638 782.779 115.638C783.663 115.638 784.385 115.884 784.946 116.374C785.507 116.865 785.787 117.489 785.787 118.246C785.787 119.158 785.324 120.055 784.399 120.939L782.674 122.537H785.934V124.325H779.772Z" fill="black"/>
<path d="M719 107.001L793 107.001" stroke="black" stroke-width="3"/>
<path d="M910.313 90.3226C909.332 90.3226 908.511 90.0001 907.852 89.355C907.207 88.696 906.885 87.8967 906.885 86.9572C906.885 86.0177 907.207 85.2254 907.852 84.5804C908.511 83.9213 909.332 83.5918 910.313 83.5918C911.295 83.5918 912.108 83.9213 912.753 84.5804C913.412 85.2254 913.742 86.0177 913.742 86.9572C913.742 87.8967 913.419 88.696 912.774 89.355C912.129 90.0001 911.309 90.3226 910.313 90.3226ZM903.099 83.8652H905.517V98.5889H903.624L896.683 88.5978V98.5889H894.264V83.8652H896.157L903.099 93.8563V83.8652ZM910.313 88.4295C910.748 88.4295 911.098 88.2893 911.365 88.0089C911.631 87.7284 911.765 87.3779 911.765 86.9572C911.765 86.5365 911.624 86.1859 911.344 85.9055C911.077 85.625 910.734 85.4848 910.313 85.4848C909.893 85.4848 909.542 85.625 909.262 85.9055C908.995 86.1859 908.862 86.5365 908.862 86.9572C908.862 87.3779 908.995 87.7284 909.262 88.0089C909.542 88.2893 909.893 88.4295 910.313 88.4295ZM907.158 93.7301V91.5846H913.51V93.7301H907.158ZM925.526 89.4181C926.928 89.4181 928.113 89.8388 929.081 90.6802C930.048 91.5075 930.532 92.6573 930.532 94.1297C930.532 95.6021 930.034 96.7589 929.039 97.6003C928.043 98.4416 926.823 98.8623 925.379 98.8623C924.215 98.8623 923.184 98.5959 922.287 98.063C921.389 97.5161 920.751 96.7309 920.373 95.7072L922.455 94.5083C922.848 95.8405 923.822 96.5065 925.379 96.5065C926.206 96.5065 926.865 96.2962 927.356 95.8755C927.861 95.4408 928.113 94.8589 928.113 94.1297C928.113 93.4005 927.868 92.8256 927.377 92.4049C926.886 91.9843 926.234 91.7739 925.421 91.7739H921.13L921.698 83.8652H929.901V86.1369H923.927L923.675 89.4181H925.526ZM941.914 96.78C940.904 98.1682 939.488 98.8623 937.665 98.8623C935.842 98.8623 934.418 98.1682 933.395 96.78C932.385 95.3917 931.88 93.5408 931.88 91.227C931.88 88.9133 932.385 87.0623 933.395 85.6741C934.418 84.2859 935.842 83.5918 937.665 83.5918C939.488 83.5918 940.904 84.2859 941.914 85.6741C942.937 87.0623 943.449 88.9133 943.449 91.227C943.449 93.5408 942.937 95.3917 941.914 96.78ZM937.665 96.5065C938.758 96.5065 939.593 96.0508 940.168 95.1393C940.743 94.2279 941.03 92.9238 941.03 91.227C941.03 89.5303 940.743 88.2262 940.168 87.3148C939.593 86.4033 938.758 85.9476 937.665 85.9476C936.585 85.9476 935.751 86.4033 935.162 87.3148C934.587 88.2262 934.299 89.5303 934.299 91.227C934.299 92.9238 934.587 94.2279 935.162 95.1393C935.751 96.0508 936.585 96.5065 937.665 96.5065ZM956.13 93.688V95.9386H954.447V98.5889H952.007V95.9386H944.772V93.688L949.841 83.8652H952.47L947.401 93.688H952.007V89.8598H954.447V93.688H956.13ZM904.757 128.688V130.939H903.075V133.589H900.635V130.939H893.399V128.688L898.468 118.865H901.097L896.028 128.688H900.635V124.86H903.075V128.688H904.757ZM908.726 118.865H910.83V133.589H908.411V121.452L905.445 122.294L904.856 120.232L908.726 118.865ZM916.216 133.379C915.907 133.687 915.536 133.841 915.101 133.841C914.666 133.841 914.295 133.687 913.986 133.379C913.678 133.07 913.523 132.698 913.523 132.264C913.523 131.829 913.671 131.457 913.965 131.149C914.274 130.84 914.652 130.686 915.101 130.686C915.536 130.686 915.907 130.84 916.216 131.149C916.524 131.457 916.678 131.829 916.678 132.264C916.678 132.698 916.524 133.07 916.216 133.379ZM928.007 131.78C926.998 133.168 925.581 133.862 923.759 133.862C921.936 133.862 920.512 133.168 919.489 131.78C918.479 130.392 917.974 128.541 917.974 126.227C917.974 123.913 918.479 122.062 919.489 120.674C920.512 119.286 921.936 118.592 923.759 118.592C925.581 118.592 926.998 119.286 928.007 120.674C929.031 122.062 929.543 123.913 929.543 126.227C929.543 128.541 929.031 130.392 928.007 131.78ZM923.759 131.507C924.852 131.507 925.687 131.051 926.262 130.139C926.837 129.228 927.124 127.924 927.124 126.227C927.124 124.53 926.837 123.226 926.262 122.315C925.687 121.403 924.852 120.948 923.759 120.948C922.679 120.948 921.844 121.403 921.256 122.315C920.681 123.226 920.393 124.53 920.393 126.227C920.393 127.924 920.681 129.228 921.256 130.139C921.844 131.051 922.679 131.507 923.759 131.507ZM947.693 123.072V133.589H945.484V126.669L942.455 131.485H942.182L939.174 126.69V133.589H936.965V123.072H939.279L942.329 127.931L945.379 123.072H947.693ZM949.539 123.913V122.567L952.841 119.391C953.36 118.9 953.619 118.416 953.619 117.94C953.619 117.659 953.521 117.435 953.325 117.267C953.128 117.098 952.862 117.014 952.525 117.014C951.852 117.014 951.362 117.393 951.053 118.15L949.475 117.267C949.742 116.636 950.135 116.138 950.653 115.773C951.172 115.409 951.803 115.226 952.546 115.226C953.43 115.226 954.152 115.472 954.713 115.963C955.274 116.453 955.554 117.077 955.554 117.835C955.554 118.746 955.092 119.643 954.166 120.527L952.441 122.125H955.701V123.913H949.539Z" fill="black"/>
<path d="M894.637 107.477H954.637" stroke="black" stroke-width="3"/>
<path d="M1038.73 90.3226C1037.75 90.3226 1036.93 90.0001 1036.27 89.355C1035.63 88.696 1035.31 87.8967 1035.31 86.9572C1035.31 86.0177 1035.63 85.2254 1036.27 84.5804C1036.93 83.9213 1037.75 83.5918 1038.73 83.5918C1039.72 83.5918 1040.53 83.9213 1041.17 84.5804C1041.83 85.2254 1042.16 86.0177 1042.16 86.9572C1042.16 87.8967 1041.84 88.696 1041.2 89.355C1040.55 90.0001 1039.73 90.3226 1038.73 90.3226ZM1031.52 83.8652H1033.94V98.5889H1032.05L1025.1 88.5978V98.5889H1022.69V83.8652H1024.58L1031.52 93.8563V83.8652ZM1038.73 88.4295C1039.17 88.4295 1039.52 88.2893 1039.79 88.0089C1040.05 87.7284 1040.19 87.3779 1040.19 86.9572C1040.19 86.5365 1040.05 86.1859 1039.76 85.9055C1039.5 85.625 1039.15 85.4848 1038.73 85.4848C1038.31 85.4848 1037.96 85.625 1037.68 85.9055C1037.42 86.1859 1037.28 86.5365 1037.28 86.9572C1037.28 87.3779 1037.42 87.7284 1037.68 88.0089C1037.96 88.2893 1038.31 88.4295 1038.73 88.4295ZM1035.58 93.7301V91.5846H1041.93V93.7301H1035.58ZM1053.95 89.4181C1055.35 89.4181 1056.53 89.8388 1057.5 90.6802C1058.47 91.5075 1058.95 92.6573 1058.95 94.1297C1058.95 95.6021 1058.46 96.7589 1057.46 97.6003C1056.46 98.4416 1055.24 98.8623 1053.8 98.8623C1052.64 98.8623 1051.61 98.5959 1050.71 98.063C1049.81 97.5161 1049.17 96.7309 1048.79 95.7072L1050.88 94.5083C1051.27 95.8405 1052.24 96.5065 1053.8 96.5065C1054.63 96.5065 1055.29 96.2962 1055.78 95.8755C1056.28 95.4408 1056.53 94.8589 1056.53 94.1297C1056.53 93.4005 1056.29 92.8256 1055.8 92.4049C1055.31 91.9843 1054.66 91.7739 1053.84 91.7739H1049.55L1050.12 83.8652H1058.32V86.1369H1052.35L1052.1 89.4181H1053.95ZM1070.33 96.78C1069.32 98.1682 1067.91 98.8623 1066.09 98.8623C1064.26 98.8623 1062.84 98.1682 1061.82 96.78C1060.81 95.3917 1060.3 93.5408 1060.3 91.227C1060.3 88.9133 1060.81 87.0623 1061.82 85.6741C1062.84 84.2859 1064.26 83.5918 1066.09 83.5918C1067.91 83.5918 1069.32 84.2859 1070.33 85.6741C1071.36 87.0623 1071.87 88.9133 1071.87 91.227C1071.87 93.5408 1071.36 95.3917 1070.33 96.78ZM1066.09 96.5065C1067.18 96.5065 1068.01 96.0508 1068.59 95.1393C1069.16 94.2279 1069.45 92.9238 1069.45 91.227C1069.45 89.5303 1069.16 88.2262 1068.59 87.3148C1068.01 86.4033 1067.18 85.9476 1066.09 85.9476C1065.01 85.9476 1064.17 86.4033 1063.58 87.3148C1063.01 88.2262 1062.72 89.5303 1062.72 91.227C1062.72 92.9238 1063.01 94.2279 1063.58 95.1393C1064.17 96.0508 1065.01 96.5065 1066.09 96.5065ZM1078.39 89.4181C1079.79 89.4181 1080.98 89.8388 1081.95 90.6802C1082.91 91.5075 1083.4 92.6573 1083.4 94.1297C1083.4 95.6021 1082.9 96.7589 1081.9 97.6003C1080.91 98.4416 1079.69 98.8623 1078.24 98.8623C1077.08 98.8623 1076.05 98.5959 1075.15 98.063C1074.25 97.5161 1073.62 96.7309 1073.24 95.7072L1075.32 94.5083C1075.71 95.8405 1076.69 96.5065 1078.24 96.5065C1079.07 96.5065 1079.73 96.2962 1080.22 95.8755C1080.73 95.4408 1080.98 94.8589 1080.98 94.1297C1080.98 93.4005 1080.73 92.8256 1080.24 92.4049C1079.75 91.9843 1079.1 91.7739 1078.29 91.7739H1073.99L1074.56 83.8652H1082.77V86.1369H1076.79L1076.54 89.4181H1078.39ZM1021.12 133.589V131.696L1026.25 126.458C1027.5 125.21 1028.12 124.131 1028.12 123.219C1028.12 122.504 1027.9 121.95 1027.47 121.558C1027.05 121.151 1026.51 120.948 1025.85 120.948C1024.61 120.948 1023.7 121.558 1023.11 122.777L1021.07 121.579C1021.54 120.597 1022.19 119.854 1023.03 119.349C1023.87 118.844 1024.8 118.592 1025.83 118.592C1027.12 118.592 1028.22 118.998 1029.15 119.812C1030.08 120.625 1030.54 121.733 1030.54 123.135C1030.54 124.635 1029.7 126.234 1028.04 127.931L1024.71 131.254H1030.81V133.589H1021.12ZM1043.13 128.688V130.939H1041.45V133.589H1039.01V130.939H1031.77V128.688L1036.84 118.865H1039.47L1034.4 128.688H1039.01V124.86H1041.45V128.688H1043.13ZM1047.3 133.379C1046.99 133.687 1046.62 133.841 1046.18 133.841C1045.75 133.841 1045.38 133.687 1045.07 133.379C1044.76 133.07 1044.6 132.698 1044.6 132.264C1044.6 131.829 1044.75 131.457 1045.05 131.149C1045.35 130.84 1045.73 130.686 1046.18 130.686C1046.62 130.686 1046.99 130.84 1047.3 131.149C1047.61 131.457 1047.76 131.829 1047.76 132.264C1047.76 132.698 1047.61 133.07 1047.3 133.379ZM1058.31 123.619C1058.31 124.741 1058.01 125.729 1057.43 126.585L1052.78 133.589H1050L1053.37 128.646H1053.11C1051.59 128.646 1050.33 128.183 1049.35 127.258C1048.38 126.318 1047.9 125.105 1047.9 123.619C1047.9 122.132 1048.38 120.927 1049.35 120.001C1050.33 119.062 1051.59 118.592 1053.11 118.592C1054.64 118.592 1055.89 119.062 1056.86 120.001C1057.83 120.927 1058.31 122.132 1058.31 123.619ZM1050.32 123.619C1050.32 124.432 1050.58 125.091 1051.09 125.596C1051.63 126.101 1052.3 126.353 1053.11 126.353C1053.93 126.353 1054.59 126.108 1055.11 125.617C1055.63 125.112 1055.89 124.446 1055.89 123.619C1055.89 122.792 1055.63 122.132 1055.11 121.642C1054.59 121.137 1053.93 120.884 1053.11 120.884C1052.3 120.884 1051.63 121.137 1051.09 121.642C1050.58 122.132 1050.32 122.792 1050.32 123.619ZM1076.14 123.072V133.589H1073.94V126.669L1070.91 131.485H1070.63L1067.63 126.69V133.589H1065.42V123.072H1067.73L1070.78 127.931L1073.83 123.072H1076.14ZM1077.99 123.913V122.567L1081.29 119.391C1081.81 118.9 1082.07 118.416 1082.07 117.94C1082.07 117.659 1081.97 117.435 1081.78 117.267C1081.58 117.098 1081.31 117.014 1080.98 117.014C1080.3 117.014 1079.81 117.393 1079.5 118.15L1077.93 117.267C1078.19 116.636 1078.59 116.138 1079.11 115.773C1079.62 115.409 1080.26 115.226 1081 115.226C1081.88 115.226 1082.6 115.472 1083.16 115.963C1083.73 116.453 1084.01 117.077 1084.01 117.835C1084.01 118.746 1083.54 119.643 1082.62 120.527L1080.89 122.125H1084.15V123.913H1077.99Z" fill="black"/>
<path d="M1023 107.477H1083" stroke="black" stroke-width="3"/>
<rect x="283.474" y="210.06" width="32.1667" height="15.0781" fill="#FFF8F3"/>
<path d="M174 207.794L174 166.001L189 166.001L189 207.794L174 207.794Z" fill="#FFF8F3"/>
<path d="M246 255.294H278.167V271.378H246V255.294Z" fill="#FFF8F3"/>
<path d="M405 255.294H437.167V271.378H405V255.294Z" fill="#FFF8F3"/>
<path d="M570 255.295H602.167V271.378H570V255.295Z" fill="#FFF8F3"/>
<path d="M739 256H771.167V272.083H739V256Z" fill="#FFF8F3"/>
<path d="M908 255.001H940.167V271.232H908V255.001Z" fill="#FFF8F3"/>
<path d="M1077 255.294H1109.17V271.378H1077V255.294Z" fill="#FFF8F3"/>
<rect x="445" y="210.06" width="32.1667" height="15.0781" fill="#FFF8F3"/>
<rect x="616" y="210.06" width="32.1667" height="15.0781" fill="#FFF8F3"/>
<rect x="744" y="210.06" width="32.1667" height="15.0781" fill="#FFF8F3"/>
<rect x="908" y="210.06" width="32.1667" height="15.0781" fill="#FFF8F3"/>
<rect x="1036.38" y="210.06" width="32.1667" height="15.0781" fill="#FFF8F3"/>
<path d="M1177.62 182.919L1177.62 215.086L1170.07 215.086L1170.07 182.919L1177.62 182.919Z" fill="#FFF8F3"/>
<path d="M177.643 266.232L177.643 247.702L189.473 247.702L189.473 266.232L177.643 266.232Z" fill="#FFF8F3"/>
<path d="M109.254 205.034L109.254 172.867L120.517 172.867L120.517 205.034L109.254 205.034Z" fill="#FFF8F3"/>
<path d="M161.844 216.296L129.677 216.296L129.677 205.034L161.844 205.034L161.844 216.296Z" fill="#FFF8F3"/>
<rect x="77.4062" y="162.815" width="32.1667" height="15.0781" transform="rotate(-90 77.4062 162.815)" fill="#FFF8F3"/>
<rect x="120.63" y="117.581" width="32.1667" height="16.0833" fill="#FFF8F3"/>
<path d="M1177.64 245.524L1177.64 266.235L1170.04 266.235L1170.04 245.524L1177.64 245.524Z" fill="#FFF8F3"/>
<path d="M75.7101 76.2763V91H73.2912V80.5041L68.811 87.908H68.5165L64.0363 80.4831V91H61.6175V76.2763H64.2257L68.6638 83.6382L73.1229 76.2763H75.7101ZM79.0665 93.1034H77.9096L86.3231 74.173H87.48L79.0665 93.1034ZM106.545 91H103.831L98.7623 84.1009V91H96.3434V84.1009L91.2743 91H88.5399L94.0507 83.4699L88.7502 76.2763H91.4846L96.3434 82.9651V76.2763H98.7623V82.9651L103.621 76.2763H106.334L101.055 83.4699L106.545 91Z" fill="black"/>
</svg>
