<svg width="21" height="18" viewBox="0 0 21 18" fill="none" xmlns="http://www.w3.org/2000/svg">
<path d="M17.7787 2.96807C16.8728 2.02147 15.6298 1.50012 14.2784 1.50012C13.2682 1.50012 12.3431 1.80781 11.5286 2.41456C11.1177 2.72084 10.7453 3.09554 10.417 3.53289C10.0888 3.09567 9.71631 2.72084 9.30522 2.41456C8.49091 1.80781 7.56579 1.50012 6.55562 1.50012C5.20419 1.50012 3.96104 2.02147 3.05514 2.96807C2.16006 3.90361 1.66699 5.18169 1.66699 6.56705C1.66699 7.99294 2.21854 9.29816 3.40268 10.6748C4.46198 11.9062 5.98445 13.1562 7.74751 14.6037C8.34952 15.098 9.03191 15.6584 9.74047 16.2552C9.92766 16.4132 10.1679 16.5001 10.417 16.5001C10.666 16.5001 10.9063 16.4132 11.0932 16.2555C11.8018 15.6585 12.4846 15.0979 13.0869 14.6033C14.8497 13.1561 16.3721 11.9062 17.4314 10.6746C18.6156 9.29816 19.167 7.99294 19.167 6.56692C19.167 5.18169 18.6739 3.90361 17.7787 2.96807Z" stroke="#8E8E8E" stroke-width="1.7"/>
</svg>
