<svg width="17" height="17" viewBox="0 0 17 17" fill="none" xmlns="http://www.w3.org/2000/svg">
<path d="M15.583 2.83332H14.1663H12.0413V0.708322C12.0413 0.317322 11.7247 0 11.333 0H5.66633C5.27463 0 4.95801 0.317322 4.95801 0.708322V2.83332H2.83301H1.41633C1.02463 2.83332 0.708008 3.15064 0.708008 3.54164C0.708008 3.93264 1.0246 4.25 1.41633 4.25H2.12465V14.875C2.12465 16.0466 3.07808 17 4.24965 17H12.7497C13.9212 17 14.8747 16.0466 14.8747 14.875V4.25H15.583C15.9747 4.25 16.2913 3.93268 16.2913 3.54168C16.2913 3.15068 15.9747 2.83332 15.583 2.83332ZM6.37465 1.41668H10.6247V2.83336H6.37465V1.41668ZM13.458 14.875C13.458 15.2653 13.1407 15.5833 12.7497 15.5833H4.24965C3.85865 15.5833 3.54133 15.2653 3.54133 14.875V4.25H5.66633H11.333H13.458V14.875H13.458Z" fill="#8D8D8D"/>
<path d="M6.37531 5.66675C5.98362 5.66675 5.66699 5.98407 5.66699 6.37507V12.7501C5.66699 13.1411 5.98362 13.4584 6.37531 13.4584C6.76701 13.4584 7.08364 13.1411 7.08364 12.7501V6.37507C7.08364 5.98407 6.76701 5.66675 6.37531 5.66675Z" fill="#8D8D8D"/>
<path d="M10.6253 5.66675C10.2336 5.66675 9.91699 5.98407 9.91699 6.37507V12.7501C9.91699 13.1411 10.2336 13.4584 10.6253 13.4584C11.017 13.4584 11.3336 13.1411 11.3336 12.7501V6.37507C11.3336 5.98407 11.017 5.66675 10.6253 5.66675Z" fill="#8D8D8D"/>
</svg>
