<svg width="21" height="19" viewBox="0 0 21 19" fill="none" xmlns="http://www.w3.org/2000/svg">
<path d="M18.4927 2.66367C17.5092 1.59086 16.1596 1 14.6923 1C13.5956 1 12.5912 1.34871 11.7069 2.03637C11.2607 2.38348 10.8565 2.80814 10.5 3.3038C10.1437 2.80829 9.73926 2.38348 9.29293 2.03637C8.40883 1.34871 7.40441 1 6.30766 1C4.84039 1 3.49068 1.59086 2.50713 2.66367C1.53533 3.72395 1 5.17244 1 6.74252C1 8.35852 1.59882 9.83778 2.88446 11.3979C4.03456 12.7935 5.68752 14.2102 7.6017 15.8507C8.25532 16.411 8.9962 17.046 9.7655 17.7224C9.96873 17.9015 10.2295 18 10.5 18C10.7703 18 11.0313 17.9015 11.2342 17.7227C12.0035 17.0461 12.7448 16.4108 13.3987 15.8503C15.3126 14.2101 16.9656 12.7935 18.1157 11.3978C19.4013 9.83778 20 8.35852 20 6.74238C20 5.17244 19.4647 3.72395 18.4927 2.66367Z" stroke="#C8AA84" stroke-width="1.7"/>
</svg>
