<svg width="16" height="18" viewBox="0 0 16 18" fill="none" xmlns="http://www.w3.org/2000/svg">
<path d="M7.99495 3.58691C5.91802 3.58691 4.23145 5.27718 4.23145 7.35042C4.23145 9.42366 5.91802 11.1176 7.99495 11.1176C10.0719 11.1176 11.7584 9.42734 11.7584 7.3541C11.7584 5.28086 10.0719 3.58691 7.99495 3.58691ZM7.99495 10.2154C6.41516 10.2154 5.13365 8.9302 5.13365 7.3541C5.13365 5.77799 6.41884 4.49281 7.99495 4.49281C9.57105 4.49281 10.8562 5.77799 10.8562 7.3541C10.8562 8.9302 9.57473 10.2154 7.99495 10.2154Z" fill="#146745"/>
<path d="M7.99495 0C7.91026 0 7.82188 0 7.73718 0.00368249C4.10625 0.128887 1.10502 2.94967 0.758866 6.56219C0.692581 7.26187 0.725724 7.96522 0.854611 8.63543C0.854611 8.63543 0.865658 8.72013 0.906165 8.87848C1.01664 9.37561 1.18235 9.85802 1.39225 10.3073C2.1398 12.0786 3.77851 14.8073 7.33579 17.7606C7.5236 17.9153 7.75927 18 8.00232 18C8.24536 18 8.48104 17.9153 8.66885 17.7606C12.2225 14.811 13.8612 12.0786 14.605 10.322C14.8186 9.8617 14.9843 9.37561 15.0948 8.88216C15.1169 8.79378 15.1316 8.72013 15.1427 8.65016C15.231 8.19722 15.2752 7.73322 15.2752 7.26923C15.2679 3.26268 12.0052 0 7.99495 0ZM14.2478 8.4955C14.2478 8.50286 14.2368 8.56547 14.211 8.67962C14.1116 9.11416 13.9679 9.53764 13.7765 9.95745C13.0657 11.6367 11.5044 14.2328 8.0907 17.0646C8.05756 17.0904 8.02441 17.0978 7.99864 17.0978C7.97654 17.0978 7.93972 17.0904 7.90657 17.0646C4.49291 14.2291 2.92785 11.633 2.21345 9.94272C2.02564 9.53764 1.88202 9.11416 1.7826 8.67594C1.7605 8.5802 1.74946 8.52128 1.74577 8.50286C1.74577 8.4955 1.74209 8.48813 1.74209 8.48077C1.62793 7.88052 1.59847 7.26187 1.65739 6.65057C1.96304 3.48732 4.58865 1.01637 7.77032 0.905892C11.3828 0.780687 14.3657 3.68249 14.3657 7.27291C14.3657 7.67799 14.3252 8.08306 14.2478 8.4955Z" fill="#146745"/>
</svg>
