<svg width="144" height="42" viewBox="0 0 144 42" fill="none" xmlns="http://www.w3.org/2000/svg">
<path d="M0 23.3379L5.37931 23.4207V4.71724H13.9862V23.3379H19.3655V0H0V23.3379Z" fill="#DB1C24"/>
<path d="M40.1705 0H28.6836C26.0023 0 23.834 2.16827 23.834 4.84965V18.6538C23.834 21.3352 26.0023 23.5034 28.6836 23.5034H40.1705C42.8519 23.5034 45.0202 21.3352 45.0202 18.6538V4.84965C45.0202 2.16827 42.8519 0 40.1705 0ZM39.2436 17.8097C39.2436 18.72 38.5154 19.4483 37.605 19.4483H31.1829C30.2726 19.4483 29.5443 18.72 29.5443 17.8097V6.17379C29.5443 5.26344 30.2726 4.53517 31.1829 4.53517H37.605C38.5154 4.53517 39.2436 5.26344 39.2436 6.17379V17.8097Z" fill="#DB1C24"/>
<path d="M65.429 9.68276H54.5379V5.04827L66.7035 4.96552V0H48.3311V23.0069L64.8828 23.1724H65.429C67.3655 23.1724 68.9379 21.6 68.9379 19.6634V13.1752C68.9379 11.2552 67.3655 9.68276 65.429 9.68276ZM63.0621 17.4455C63.0621 18.1407 62.4993 18.7034 61.8042 18.7034H54.7862V13.4069H61.8042C62.4993 13.4069 63.0621 13.9697 63.0621 14.6648V17.4455Z" fill="#DB1C24"/>
<path d="M72.8271 23.5034H90.703V18.7862H78.2065V13.9862H88.1375V9.35172H78.372V4.55172L90.703 4.63448V0H72.8271V23.5034Z" fill="#DB1C24"/>
<path d="M115.697 0H98.1521C98.1521 0 98.1521 10.2621 98.1521 14.4C98.1521 18.5379 93.8486 18.7034 93.8486 18.7034V23.5034H118.511V18.7034H115.697V0ZM109.656 18.4552H101.545C101.545 18.4552 103.2 16.9655 103.2 13.3241C103.2 9.68276 103.2 5.04827 103.2 5.04827L109.656 4.88276V18.4552Z" fill="#DB1C24"/>
<path d="M135.228 0H129.103L120.331 23.5034H126.786L128.193 18.9517H136.138L137.71 23.1724H144L135.228 0ZM129.186 14.9793L131.835 7.53103L134.814 14.9793H129.186Z" fill="#DB1C24"/>
<path d="M5.96266 36.8516C5.96266 37.4961 5.84875 38.0612 5.62091 38.5468C5.39308 39.0325 5.06631 39.4072 4.64062 39.671C4.21793 39.9348 3.73229 40.0667 3.18368 40.0667C2.64108 40.0667 2.15693 39.9363 1.73124 39.6755C1.30555 39.4147 0.97579 39.043 0.74196 38.5603C0.50813 38.0747 0.389717 37.5171 0.386719 36.8876V36.5638C0.386719 35.9193 0.502135 35.3527 0.732967 34.864C0.966797 34.3724 1.29506 33.9962 1.71775 33.7353C2.14344 33.4715 2.62909 33.3396 3.17469 33.3396C3.72029 33.3396 4.20444 33.4715 4.62713 33.7353C5.05282 33.9962 5.38109 34.3724 5.61192 34.864C5.84575 35.3527 5.96266 35.9178 5.96266 36.5593V36.8516ZM4.59566 36.5548C4.59566 35.8683 4.47275 35.3467 4.22693 34.9899C3.9811 34.6332 3.63036 34.4548 3.17469 34.4548C2.72202 34.4548 2.37277 34.6317 2.12695 34.9854C1.88113 35.3362 1.75672 35.8518 1.75372 36.5323V36.8516C1.75372 37.5201 1.87663 38.0387 2.12246 38.4074C2.36828 38.7762 2.72202 38.9605 3.18368 38.9605C3.63635 38.9605 3.9841 38.7837 4.22693 38.4299C4.46975 38.0732 4.59266 37.5546 4.59566 36.8741V36.5548ZM11.156 34.0141H11.237C11.7496 34.0141 12.2128 34.1281 12.6265 34.3559C13.0432 34.5807 13.3669 34.9015 13.5977 35.3182C13.8286 35.7349 13.944 36.2085 13.944 36.7392C13.944 37.5246 13.6922 38.1661 13.1885 38.6638C12.6879 39.1614 12.0104 39.4102 11.156 39.4102V40.2466H9.85647V39.4102H9.77103C9.25241 39.4102 8.78475 39.2993 8.36805 39.0775C7.95136 38.8526 7.62759 38.5379 7.39676 38.1331C7.16892 37.7284 7.05501 37.2668 7.05501 36.7482C7.05501 36.2235 7.16892 35.7544 7.39676 35.3407C7.62459 34.927 7.94386 34.6047 8.35456 34.3739C8.76526 34.1401 9.22393 34.0201 9.73056 34.0141H9.85647V33.1598H11.156V34.0141ZM9.77103 35.1338C9.32436 35.1338 8.97211 35.2747 8.7143 35.5565C8.45949 35.8383 8.33208 36.2355 8.33208 36.7482C8.33208 37.2278 8.45949 37.6055 8.7143 37.8813C8.96912 38.1541 9.32735 38.2905 9.78902 38.2905H9.85647V35.1338H9.77103ZM11.156 35.1338V38.2905H11.246C11.6866 38.2905 12.0329 38.1526 12.2847 37.8768C12.5395 37.598 12.6669 37.2188 12.6669 36.7392C12.6669 36.2385 12.5425 35.8458 12.2937 35.561C12.0449 35.2762 11.6881 35.1338 11.2235 35.1338H11.156ZM19.1239 33.4296H20.4774V39.9768H19.1239V35.6285L16.5023 39.9768H15.1533V33.4296H16.5023V37.7869L19.1239 33.4296ZM27.1547 37.7959C27.1037 38.5004 26.8429 39.055 26.3722 39.4597C25.9046 39.8644 25.287 40.0667 24.5196 40.0667C23.6802 40.0667 23.0192 39.7849 22.5365 39.2214C22.0569 38.6548 21.817 37.8783 21.817 36.8921V36.4918C21.817 35.8623 21.928 35.3077 22.1498 34.8281C22.3716 34.3484 22.6879 33.9812 23.0986 33.7264C23.5123 33.4685 23.992 33.3396 24.5376 33.3396C25.293 33.3396 25.9016 33.542 26.3632 33.9467C26.8249 34.3514 27.0917 34.9195 27.1637 35.651H25.8146C25.7817 35.2283 25.6633 34.9225 25.4594 34.7336C25.2585 34.5418 24.9513 34.4458 24.5376 34.4458C24.0879 34.4458 23.7506 34.6077 23.5258 34.9315C23.304 35.2522 23.1901 35.7514 23.1841 36.4289V36.9235C23.1841 37.631 23.2905 38.1481 23.5033 38.4749C23.7192 38.8017 24.0579 38.965 24.5196 38.965C24.9363 38.965 25.2466 38.8706 25.4504 38.6817C25.6573 38.4899 25.7757 38.1946 25.8056 37.7959H27.1547ZM33.7375 39.9768H32.3885V37.1708H29.7579V39.9768H28.4089V33.4296H29.7579V36.0826H32.3885V33.4296H33.7375V39.9768ZM36.66 35.7904H37.7123C38.4827 35.7904 39.0928 35.9777 39.5424 36.3524C39.9951 36.7242 40.2214 37.2263 40.2214 37.8588C40.2214 38.4944 39.9966 39.0055 39.5469 39.3922C39.1003 39.776 38.5052 39.9708 37.7617 39.9768H35.302V33.4296H36.66V35.7904ZM42.1326 39.9768H40.7835V33.4296H42.1326V39.9768ZM36.66 36.8786V38.8931H37.7348C38.0795 38.8931 38.3538 38.7987 38.5577 38.6098C38.7645 38.4209 38.8679 38.1676 38.8679 37.8499C38.8679 37.5531 38.769 37.3192 38.5711 37.1484C38.3763 36.9745 38.108 36.8846 37.7662 36.8786H36.66ZM47.6137 33.4296H48.9672V39.9768H47.6137V35.6285L44.9921 39.9768H43.6431V33.4296H44.9921V37.7869L47.6137 33.4296ZM47.8745 31.7073C47.8745 32.106 47.7306 32.4283 47.4428 32.6741C47.158 32.9199 46.7833 33.0429 46.3186 33.0429C45.854 33.0429 45.4778 32.9214 45.19 32.6786C44.9052 32.4358 44.7628 32.112 44.7628 31.7073H45.6846C45.6846 31.8962 45.7401 32.0431 45.851 32.148C45.9649 32.2499 46.1208 32.3009 46.3186 32.3009C46.5135 32.3009 46.6664 32.2499 46.7773 32.148C46.8882 32.0431 46.9437 31.8962 46.9437 31.7073H47.8745ZM53.108 33.4296H54.457V38.8931H57.0786V33.4296H58.4321V38.8931H59.327L59.237 41.5552H57.9779V39.9768H53.108V33.4296ZM64.4619 37.1394H61.8718V38.8931H64.9115V39.9768H60.5227V33.4296H64.9025V34.5223H61.8718V36.0826H64.4619V37.1394ZM71.4 39.9768H70.0509V37.1708H67.4204V39.9768H66.0713V33.4296H67.4204V36.0826H70.0509V33.4296H71.4V39.9768ZM77.7445 34.5223H75.7389V39.9768H74.3899V34.5223H72.4114V33.4296H77.7445V34.5223ZM80.2353 37.67V39.9768H78.8863V33.4296H81.4404C81.9321 33.4296 82.3638 33.5195 82.7355 33.6994C83.1102 33.8792 83.398 34.1356 83.5989 34.4683C83.7997 34.7981 83.9001 35.1743 83.9001 35.597C83.9001 36.2385 83.6798 36.7452 83.2391 37.1169C82.8014 37.4856 82.1944 37.67 81.418 37.67H80.2353ZM80.2353 36.5773H81.4404C81.7972 36.5773 82.0685 36.4933 82.2543 36.3255C82.4432 36.1576 82.5376 35.9178 82.5376 35.606C82.5376 35.2852 82.4432 35.0259 82.2543 34.8281C82.0655 34.6302 81.8047 34.5283 81.4719 34.5223H80.2353V36.5773Z" fill="#181818"/>
</svg>
