<svg width="124" height="109" viewBox="0 0 124 109" fill="none" xmlns="http://www.w3.org/2000/svg">
<rect x="2" width="120" height="107.854" fill="white"/>
<path d="M62.1463 1.46313H122V106.975H114.5M43.7073 1.46313H2V106.975H9.7561M49.6341 106.975H34.561M89.4024 106.975H81.9024H74.4024" stroke="#136644" stroke-width="2.92683"/>
<rect x="89.6589" y="106.39" width="24.5854" height="1.17073" stroke="#136644" stroke-width="0.585366"/>
<rect x="49.7077" y="106.39" width="24.5854" height="1.17073" stroke="#136644" stroke-width="0.585366"/>
<rect x="9.75557" y="106.39" width="24.5854" height="1.17073" stroke="#136644" stroke-width="0.585366"/>
<path d="M71.6582 35.8537H81.4265M114.975 35.8537H81.4265M108.097 35.8537H121.853M81.4265 35.8537V16.683M81.4265 6.22281V1.02441" stroke="#136644" stroke-width="2.92683"/>
<path d="M42.8291 106.976V35.7805H54.3169" stroke="#136644" stroke-width="2.92683"/>
<path d="M80.1118 62.7088C79.8599 62.7088 79.6475 62.6242 79.4745 62.455C79.3054 62.2858 79.2208 62.079 79.2208 61.8346C79.2208 61.5902 79.3054 61.3835 79.4745 61.2143C79.6437 61.0451 79.8561 60.9605 80.1118 60.9605C80.3675 60.9605 80.5799 61.0451 80.7491 61.2143C80.9183 61.3835 81.0028 61.5902 81.0028 61.8346C81.0028 62.079 80.9183 62.2858 80.7491 62.455C80.5836 62.6242 80.3712 62.7088 80.1118 62.7088ZM78.3128 61.0282H78.8373V64.9758H78.4143L76.3841 62.0264V64.9758H75.8596V61.0282H76.2826L78.3128 63.972V61.0282ZM79.7904 62.1561C79.8731 62.2426 79.9802 62.2858 80.1118 62.2858C80.2434 62.2858 80.3505 62.2426 80.4333 62.1561C80.516 62.0696 80.5573 61.9625 80.5573 61.8346C80.5573 61.7068 80.516 61.5996 80.4333 61.5132C80.3505 61.4267 80.2434 61.3835 80.1118 61.3835C79.9802 61.3835 79.8731 61.4267 79.7904 61.5132C79.7076 61.5996 79.6663 61.7068 79.6663 61.8346C79.6663 61.9625 79.7076 62.0696 79.7904 62.1561ZM79.2884 63.5378V63.0697H80.9352V63.5378H79.2884ZM84.4058 62.6467C84.7066 62.7031 84.9528 62.8328 85.1446 63.0358C85.3363 63.2389 85.4322 63.4964 85.4322 63.8085C85.4322 64.1919 85.3006 64.4946 85.0374 64.7164C84.7742 64.9382 84.4547 65.0491 84.0787 65.0491C83.7779 65.0491 83.511 64.9815 83.2779 64.8461C83.0448 64.707 82.8794 64.5078 82.7816 64.2483L83.2215 63.9889C83.3381 64.3536 83.6238 64.5359 84.0787 64.5359C84.3231 64.5359 84.5223 64.472 84.6765 64.3442C84.8306 64.2164 84.9077 64.0378 84.9077 63.8085C84.9077 63.5791 84.8306 63.4005 84.6765 63.2727C84.5223 63.1411 84.3231 63.0753 84.0787 63.0753H83.9434L83.7347 62.7539L84.6483 61.5188H82.8944V61.0282H85.263V61.4906L84.4058 62.6467ZM86.6868 61.0282H87.1379V64.9758H86.6191V61.5921L85.7788 61.8403L85.6491 61.3891L86.6868 61.0282ZM89.0973 62.3929C89.4921 62.3929 89.8173 62.517 90.073 62.7651C90.3286 63.0095 90.4565 63.3272 90.4565 63.7182C90.4565 64.1092 90.3286 64.4288 90.073 64.6769C89.8173 64.9251 89.4921 65.0491 89.0973 65.0491C88.6988 65.0491 88.3717 64.9251 88.1161 64.6769C87.8642 64.4288 87.7382 64.1092 87.7382 63.7182C87.7382 63.4137 87.8172 63.1505 87.9751 62.9287L89.244 61.0282H89.8417L88.9112 62.4042C88.9939 62.3967 89.056 62.3929 89.0973 62.3929ZM88.4883 64.3216C88.6462 64.472 88.8492 64.5472 89.0973 64.5472C89.3455 64.5472 89.5466 64.472 89.7008 64.3216C89.8587 64.1675 89.9376 63.9664 89.9376 63.7182C89.9376 63.4701 89.8587 63.2708 89.7008 63.1204C89.5466 62.97 89.3455 62.8949 89.0973 62.8949C88.8454 62.8949 88.6424 62.97 88.4883 63.1204C88.3341 63.2708 88.257 63.4701 88.257 63.7182C88.257 63.9664 88.3341 64.1675 88.4883 64.3216ZM76.425 71.3929C76.8197 71.3929 77.145 71.517 77.4006 71.7651C77.6563 72.0095 77.7841 72.3272 77.7841 72.7182C77.7841 73.1092 77.6563 73.4288 77.4006 73.6769C77.145 73.9251 76.8197 74.0491 76.425 74.0491C76.0265 74.0491 75.6994 73.9251 75.4437 73.6769C75.1918 73.4288 75.0659 73.1092 75.0659 72.7182C75.0659 72.4137 75.1448 72.1505 75.3027 71.9287L76.5716 70.0282H77.1694L76.2389 71.4042C76.3216 71.3967 76.3836 71.3929 76.425 71.3929ZM75.8159 73.3216C75.9738 73.472 76.1768 73.5472 76.425 73.5472C76.6731 73.5472 76.8743 73.472 77.0284 73.3216C77.1863 73.1675 77.2653 72.9664 77.2653 72.7182C77.2653 72.4701 77.1863 72.2708 77.0284 72.1204C76.8743 71.97 76.6731 71.8949 76.425 71.8949C76.1731 71.8949 75.9701 71.97 75.8159 72.1204C75.6618 72.2708 75.5847 72.4701 75.5847 72.7182C75.5847 72.9664 75.6618 73.1675 75.8159 73.3216ZM79.4101 71.5678C79.7823 71.5678 80.0962 71.6787 80.3519 71.9005C80.6113 72.1186 80.741 72.4212 80.741 72.8085C80.741 73.1919 80.6094 73.4946 80.3462 73.7164C80.0831 73.9382 79.7635 74.0491 79.3875 74.0491C79.0867 74.0491 78.8179 73.9777 78.5811 73.8348C78.3442 73.6882 78.1788 73.4777 78.0848 73.2032L78.5303 72.9494C78.583 73.1412 78.6845 73.2878 78.8349 73.3893C78.9852 73.4871 79.1695 73.5359 79.3875 73.5359C79.6357 73.5359 79.8368 73.472 79.9909 73.3442C80.1451 73.2164 80.2222 73.0378 80.2222 72.8085C80.2222 72.5791 80.1451 72.4005 79.9909 72.2727C79.8368 72.1411 79.6394 72.0753 79.3988 72.0753H78.2822L78.4288 70.0282H80.5887V70.5188H78.9025L78.8349 71.5678H79.4101ZM81.5217 74.0379C81.4202 74.0379 81.3337 74.0021 81.2623 73.9307C81.1909 73.8593 81.1552 73.7728 81.1552 73.6713C81.1552 73.5698 81.1909 73.4833 81.2623 73.4119C81.3337 73.3404 81.4202 73.3047 81.5217 73.3047C81.627 73.3047 81.7135 73.3404 81.7811 73.4119C81.8526 73.4833 81.8883 73.5698 81.8883 73.6713C81.8883 73.7728 81.8526 73.8593 81.7811 73.9307C81.7135 74.0021 81.627 74.0379 81.5217 74.0379ZM83.3273 70.0282H83.7784V73.9758H83.2596V70.5921L82.4193 70.8403L82.2896 70.3891L83.3273 70.0282ZM88.8227 71.1561V73.9758H88.3433V71.9287L87.4466 73.3724H87.3846L86.4879 71.9287V73.9758H86.0029V71.1561H86.5274L87.4128 72.5829L88.2982 71.1561H88.8227ZM89.363 71.3817V71.0602L90.2766 70.1974C90.4232 70.062 90.4965 69.9173 90.4965 69.7631C90.4965 69.6729 90.4646 69.6015 90.4007 69.5488C90.3405 69.4924 90.2578 69.4642 90.1525 69.4642C89.9458 69.4642 89.7972 69.5733 89.707 69.7913L89.3461 69.5883C89.4965 69.2311 89.7653 69.0525 90.1525 69.0525C90.3819 69.0525 90.5699 69.1202 90.7165 69.2556C90.8631 69.3872 90.9364 69.5526 90.9364 69.7518C90.9364 70.0037 90.8161 70.2406 90.5755 70.4624L90.0059 70.9756H90.9759V71.3817H89.363Z" fill="black"/>
<path d="M74.0264 67.0918L92.025 67.0918" stroke="black" stroke-width="0.497561"/>
<path d="M2.58496 22.756H30.1703V16.6097M30.1703 5.56091V1.68286" stroke="#136644" stroke-width="2.92683"/>
</svg>
