<svg width="172" height="380" viewBox="0 0 172 380" fill="none" xmlns="http://www.w3.org/2000/svg">
<rect x="8.04395" y="6.06616" width="159.956" height="373.571" fill="white"/>
<path d="M165.956 379.637V6.06616H122.517M6 379.637V6.06616H50.4606" stroke="#136644" stroke-width="10.2208"/>
<path d="M6.51074 374.527H57.6148" stroke="#136644" stroke-width="10.2208"/>
<path d="M115.874 374.527H166.978" stroke="#136644" stroke-width="10.2208"/>
<rect x="50.9713" y="4.02208" width="70.5237" height="4.08833" stroke="#136644" stroke-width="2.04416"/>
<path d="M72.9997 165.307C72.12 165.307 71.3782 165.012 70.7743 164.421C70.1835 163.83 69.8881 163.108 69.8881 162.255C69.8881 161.401 70.1835 160.679 70.7743 160.088C71.3651 159.497 72.1069 159.202 72.9997 159.202C73.8925 159.202 74.6343 159.497 75.2251 160.088C75.8159 160.679 76.1113 161.401 76.1113 162.255C76.1113 163.108 75.8159 163.83 75.2251 164.421C74.6474 165.012 73.9056 165.307 72.9997 165.307ZM66.7174 159.438H68.5489V173.224H67.0718L59.9821 162.924V173.224H58.1506V159.438H59.6276L66.7174 169.719V159.438ZM71.8771 163.377C72.166 163.679 72.5402 163.83 72.9997 163.83C73.4592 163.83 73.8334 163.679 74.1222 163.377C74.4111 163.075 74.5555 162.701 74.5555 162.255C74.5555 161.808 74.4111 161.434 74.1222 161.132C73.8334 160.83 73.4592 160.679 72.9997 160.679C72.5402 160.679 72.166 160.83 71.8771 161.132C71.5883 161.434 71.4439 161.808 71.4439 162.255C71.4439 162.701 71.5883 163.075 71.8771 163.377ZM70.1244 168.202V166.568H75.875V168.202H70.1244ZM82.4805 173.224V171.727L87.3449 166.764C88.6447 165.465 89.2946 164.349 89.2946 163.416C89.2946 162.642 89.0583 162.038 88.5856 161.605C88.113 161.171 87.5353 160.955 86.8526 160.955C85.5528 160.955 84.6075 161.572 84.0166 162.806L82.4805 161.9C82.9138 161.007 83.5112 160.331 84.2727 159.872C85.0473 159.412 85.9007 159.182 86.8329 159.182C87.9882 159.182 88.9926 159.563 89.846 160.325C90.6994 161.086 91.1261 162.11 91.1261 163.397C91.1261 164.788 90.3055 166.305 88.6644 167.946L85.1392 171.452H91.3821V173.224H82.4805ZM102.087 171.53C101.155 172.83 99.8487 173.48 98.1682 173.48C96.4876 173.48 95.1813 172.83 94.2491 171.53C93.3169 170.231 92.8508 168.497 92.8508 166.331C92.8508 164.165 93.3169 162.432 94.2491 161.132C95.1813 159.832 96.4876 159.182 98.1682 159.182C99.8487 159.182 101.155 159.832 102.087 161.132C103.019 162.432 103.485 164.165 103.485 166.331C103.485 168.497 103.019 170.231 102.087 171.53ZM95.5883 170.29C96.1922 171.222 97.0522 171.688 98.1682 171.688C99.2841 171.688 100.144 171.222 100.748 170.29C101.365 169.357 101.674 168.038 101.674 166.331C101.674 164.624 101.365 163.305 100.748 162.373C100.144 161.427 99.2841 160.955 98.1682 160.955C97.0522 160.955 96.1922 161.421 95.5883 162.353C94.9843 163.285 94.6824 164.611 94.6824 166.331C94.6824 168.038 94.9843 169.357 95.5883 170.29ZM115.378 168.891V170.605H113.704V173.224H111.873V170.605H104.842V168.891L109.785 159.438H111.755L106.811 168.891H111.873V164.992H113.704V168.891H115.378ZM57.9018 203.224V201.727L62.7661 196.764C64.0659 195.465 64.7158 194.349 64.7158 193.416C64.7158 192.642 64.4795 192.038 64.0069 191.605C63.5342 191.171 62.9565 190.955 62.2738 190.955C60.974 190.955 60.0287 191.572 59.4379 192.806L57.9018 191.9C58.335 191.007 58.9324 190.331 59.6939 189.872C60.4685 189.412 61.3219 189.182 62.2541 189.182C63.4095 189.182 64.4139 189.563 65.2673 190.325C66.1207 191.086 66.5473 192.11 66.5473 193.397C66.5473 194.788 65.7268 196.305 64.0856 197.946L60.5604 201.452H66.8034V203.224H57.9018ZM71.3814 189.438H72.9569V203.224H71.1451V191.408L68.2107 192.274L67.7577 190.699L71.3814 189.438ZM76.8847 203.441C76.5302 203.441 76.2283 203.316 75.9788 203.066C75.7294 202.817 75.6046 202.515 75.6046 202.161C75.6046 201.806 75.7294 201.504 75.9788 201.255C76.2283 201.005 76.5302 200.88 76.8847 200.88C77.2524 200.88 77.5543 201.005 77.7906 201.255C78.0401 201.504 78.1648 201.806 78.1648 202.161C78.1648 202.515 78.0401 202.817 77.7906 203.066C77.5543 203.316 77.2524 203.441 76.8847 203.441ZM88.817 201.53C87.8848 202.83 86.5785 203.48 84.8979 203.48C83.2174 203.48 81.9111 202.83 80.9789 201.53C80.0467 200.231 79.5806 198.497 79.5806 196.331C79.5806 194.165 80.0467 192.432 80.9789 191.132C81.9111 189.832 83.2174 189.182 84.8979 189.182C86.5785 189.182 87.8848 189.832 88.817 191.132C89.7492 192.432 90.2153 194.165 90.2153 196.331C90.2153 198.497 89.7492 200.231 88.817 201.53ZM82.3181 200.29C82.922 201.222 83.782 201.688 84.8979 201.688C86.0139 201.688 86.8739 201.222 87.4778 200.29C88.0949 199.357 88.4034 198.038 88.4034 196.331C88.4034 194.624 88.0949 193.305 87.4778 192.373C86.8739 191.427 86.0139 190.955 84.8979 190.955C83.782 190.955 82.922 191.421 82.3181 192.353C81.7141 193.285 81.4121 194.611 81.4121 196.331C81.4121 198.038 81.7141 199.357 82.3181 200.29ZM107.169 193.377V203.224H105.495V196.075L102.364 201.117H102.147L99.0161 196.075V203.224H97.3224V193.377H99.1539L102.246 198.36L105.338 193.377H107.169ZM109.056 194.165V193.042L112.247 190.029C112.759 189.557 113.015 189.051 113.015 188.513C113.015 188.198 112.903 187.948 112.68 187.764C112.47 187.567 112.181 187.469 111.813 187.469C111.091 187.469 110.573 187.85 110.258 188.611L108.997 187.902C109.522 186.655 110.461 186.031 111.813 186.031C112.614 186.031 113.271 186.268 113.783 186.74C114.295 187.2 114.551 187.778 114.551 188.473C114.551 189.353 114.131 190.18 113.29 190.955L111.301 192.747H114.689V194.165H109.056Z" fill="black"/>
<path d="M57.1045 181.353L115.363 181.353" stroke="black" stroke-width="1.73754"/>
</svg>
