<svg width="17" height="17" viewBox="0 0 17 17" fill="none" xmlns="http://www.w3.org/2000/svg">
<path d="M10.3848 13.2304C8.77135 13.2304 7.30457 12.6583 6.16048 11.6902L1.02675 16.824C0.909403 16.9413 0.762726 17 0.601379 17C0.440033 17 0.293356 16.9413 0.176014 16.824C-0.058672 16.5893 -0.058672 16.2079 0.176014 15.9733L5.30975 10.8395C4.35634 9.69543 3.76963 8.21398 3.76963 6.61518C3.76963 2.9629 6.73253 0 10.3848 0C14.0224 0 17 2.97757 17 6.61518C17 10.2675 14.0224 13.2304 10.3848 13.2304ZM10.3848 1.20276C7.39258 1.20276 4.97239 3.63762 4.97239 6.61518C4.97239 9.60742 7.39258 12.0276 10.3848 12.0276C13.377 12.0276 15.7972 9.59275 15.7972 6.61518C15.7972 3.63762 13.3624 1.20276 10.3848 1.20276Z" fill="white"/>
</svg>
